<svg class="toyplot-canvas-Canvas" xmlns:toyplot="http://www.sandia.gov/toyplot" xmlns:xlink="http://www.w3.org/1999/xlink" xmlns="http://www.w3.org/2000/svg" width="700.0px" height="700.0px" viewBox="0 0 700.0 700.0" preserveAspectRatio="xMidYMid meet" style="background-color:transparent;border-color:#292724;border-style:none;border-width:1.0;fill:rgb(16.1%,15.3%,14.1%);fill-opacity:1.0;font-family:Helvetica;font-size:12px;opacity:1.0;stroke:rgb(16.1%,15.3%,14.1%);stroke-opacity:1.0;stroke-width:1.0" id="ta4a307a847bc4ed09e876cfb36006bba"><g class="toyplot-coordinates-Cartesian" id="t7284f2de3c53402aa7b53a76c981c2d0"><clipPath id="tacdb2bca12d8467da6ab6ff047c9510d"><rect x="30.0" y="30.0" width="640.0" height="640.0" /></clipPath><g clip-path="url(#tacdb2bca12d8467da6ab6ff047c9510d)"><g class="toytree-mark-Toytree" id="tb8a2d688b6194cfe9f1f52350718d435"><g class="toytree-Edges" style="fill:none;stroke:rgb(14.9%,14.9%,14.9%);stroke-linecap:round;stroke-opacity:1;stroke-width:2"><path d="M 51.7 191.2 L 51.7 138.2 L 103.2 138.2" id="73,72" /><path d="M 51.7 191.2 L 51.7 373.3 L 156.0 373.3" id="73,71" /><path d="M 103.2 138.2 L 103.2 91.3 L 131.2 91.3" id="72,70" /><path d="M 103.2 138.2 L 103.2 185.1 L 137.4 185.1" id="72,69" /><path d="M 156.0 373.3 L 156.0 305.3 L 203.0 305.3" id="71,68" /><path d="M 156.0 373.3 L 156.0 441.4 L 197.1 441.4" id="71,67" /><path d="M 131.2 91.3 L 131.2 104.9 L 239.9 104.9" id="70,66" /><path d="M 137.4 185.1 L 137.4 153.5 L 137.4 153.5" id="69,65" /><path d="M 137.4 185.1 L 137.4 216.7 L 173.0 216.7" id="69,64" /><path d="M 203.0 305.3 L 203.0 330.5 L 256.8 330.5" id="68,63" /><path d="M 197.1 441.4 L 197.1 462.8 L 267.8 462.8" id="67,62" /><path d="M 239.9 104.9 L 239.9 116.6 L 372.2 116.6" id="66,61" /><path d="M 137.4 153.5 L 137.4 167.1 L 223.9 167.1" id="65,60" /><path d="M 173.0 216.7 L 173.0 231.3 L 208.8 231.3" id="64,59" /><path d="M 256.8 330.5 L 256.8 303.3 L 299.6 303.3" id="63,58" /><path d="M 256.8 330.5 L 256.8 357.8 L 375.2 357.8" id="63,57" /><path d="M 267.8 462.8 L 267.8 443.4 L 267.8 443.4" id="62,56" /><path d="M 267.8 462.8 L 267.8 482.3 L 301.0 482.3" id="62,55" /><path d="M 223.9 167.1 L 223.9 178.8 L 259.5 178.8" id="60,54" /><path d="M 208.8 231.3 L 208.8 245.0 L 339.5 245.0" id="59,53" /><path d="M 375.2 357.8 L 375.2 334.4 L 481.1 334.4" id="57,52" /><path d="M 375.2 357.8 L 375.2 381.1 L 400.6 381.1" id="57,51" /><path d="M 301.0 482.3 L 301.0 497.9 L 301.0 497.9" id="55,50" /><path d="M 339.5 245.0 L 339.5 256.6 L 339.5 256.6" id="53,49" /><path d="M 400.6 381.1 L 400.6 365.6 L 489.8 365.6" id="51,48" /><path d="M 400.6 381.1 L 400.6 396.7 L 436.3 396.7" id="51,47" /><path d="M 301.0 497.9 L 301.0 513.5 L 324.3 513.5" id="50,46" /><path d="M 324.3 513.5 L 324.3 529.2 L 324.3 529.2" id="46,45" /><path d="M 324.3 529.2 L 324.3 545.0 L 367.3 545.0" id="45,44" /><path d="M 367.3 545.0 L 367.3 561.1 L 376.3 561.1" id="44,43" /><path d="M 376.3 561.1 L 376.3 577.6 L 376.3 577.6" id="43,42" /><path d="M 376.3 577.6 L 376.3 595.1 L 376.3 595.1" id="42,41" /><path d="M 376.3 595.1 L 376.3 614.6 L 393.1 614.6" id="41,40" /><path d="M 393.1 614.6 L 393.1 599.0 L 465.8 599.0" id="40,39" /><path d="M 393.1 614.6 L 393.1 630.1 L 409.9 630.1" id="40,38" /><path d="M 51.7 191.2 L 51.7 62.1 L 51.7 62.1" id="73,37" /><path d="M 131.2 91.3 L 131.2 77.7 L 195.5 77.7" id="70,36" /><path d="M 239.9 104.9 L 239.9 93.2 L 320.2 93.2" id="66,35" /><path d="M 372.2 116.6 L 372.2 108.8 L 548.7 108.8" id="61,34" /><path d="M 372.2 116.6 L 372.2 124.3 L 398.9 124.3" id="61,33" /><path d="M 137.4 153.5 L 137.4 139.9 L 211.5 139.9" id="65,32" /><path d="M 223.9 167.1 L 223.9 155.5 L 245.7 155.5" id="60,31" /><path d="M 259.5 178.8 L 259.5 171.0 L 295.7 171.0" id="54,30" /><path d="M 259.5 178.8 L 259.5 186.6 L 372.1 186.6" id="54,29" /><path d="M 173.0 216.7 L 173.0 202.2 L 280.4 202.2" id="64,28" /><path d="M 208.8 231.3 L 208.8 217.7 L 244.8 217.7" id="59,27" /><path d="M 339.5 245.0 L 339.5 233.3 L 470.7 233.3" id="53,26" /><path d="M 339.5 256.6 L 339.5 248.8 L 498.5 248.8" id="49,25" /><path d="M 339.5 256.6 L 339.5 264.4 L 339.5 264.4" id="49,24" /><path d="M 203.0 305.3 L 203.0 280.0 L 291.3 280.0" id="68,23" /><path d="M 299.6 303.3 L 299.6 295.5 L 343.4 295.5" id="58,22" /><path d="M 299.6 303.3 L 299.6 311.1 L 299.6 311.1" id="58,21" /><path d="M 481.1 334.4 L 481.1 326.7 L 517.4 326.7" id="52,20" /><path d="M 481.1 334.4 L 481.1 342.2 L 519.3 342.2" id="52,19" /><path d="M 489.8 365.6 L 489.8 357.8 L 489.8 357.8" id="48,18" /><path d="M 489.8 365.6 L 489.8 373.3 L 523.5 373.3" id="48,17" /><path d="M 436.3 396.7 L 436.3 388.9 L 436.3 388.9" id="47,16" /><path d="M 436.3 396.7 L 436.3 404.5 L 436.3 404.5" id="47,15" /><path d="M 197.1 441.4 L 197.1 420.0 L 197.1 420.0" id="67,14" /><path d="M 267.8 443.4 L 267.8 435.6 L 267.8 435.6" id="56,13" /><path d="M 267.8 443.4 L 267.8 451.2 L 267.8 451.2" id="56,12" /><path d="M 301.0 482.3 L 301.0 466.7 L 318.0 466.7" id="55,11" /><path d="M 301.0 497.9 L 301.0 482.3 L 318.8 482.3" id="50,10" /><path d="M 324.3 513.5 L 324.3 497.8 L 341.8 497.8" id="46,9" /><path d="M 324.3 529.2 L 324.3 513.4 L 434.8 513.4" id="45,8" /><path d="M 367.3 545.0 L 367.3 529.0 L 376.3 529.0" id="44,7" /><path d="M 376.3 561.1 L 376.3 544.5 L 376.3 544.5" id="43,6" /><path d="M 376.3 577.6 L 376.3 560.1 L 376.3 560.1" id="42,5" /><path d="M 376.3 595.1 L 376.3 575.7 L 392.9 575.7" id="41,4" /><path d="M 465.8 599.0 L 465.8 591.2 L 481.0 591.2" id="39,3" /><path d="M 465.8 599.0 L 465.8 606.8 L 557.1 606.8" id="39,2" /><path d="M 409.9 630.1 L 409.9 622.3 L 427.2 622.3" id="38,1" /><path d="M 409.9 630.1 L 409.9 637.9 L 499.4 637.9" id="38,0" /></g><g class="toytree-Nodes" style="fill:rgb(40%,76.1%,64.7%);fill-opacity:1.0;stroke:None;stroke-width:1"><g id="node-0" transform="translate(499.441,637.908)"><circle r="0.0" /></g><g id="node-1" transform="translate(427.197,622.345)"><circle r="0.0" /></g><g id="node-2" transform="translate(557.064,606.783)"><circle r="0.0" /></g><g id="node-3" transform="translate(481.000,591.220)"><circle r="0.0" /></g><g id="node-4" transform="translate(392.882,575.658)"><circle r="0.0" /></g><g id="node-5" transform="translate(376.284,560.095)"><circle r="0.0" /></g><g id="node-6" transform="translate(376.282,544.532)"><circle r="0.0" /></g><g id="node-7" transform="translate(376.284,528.970)"><circle r="0.0" /></g><g id="node-8" transform="translate(434.789,513.407)"><circle r="0.0" /></g><g id="node-9" transform="translate(341.812,497.845)"><circle r="0.0" /></g><g id="node-10" transform="translate(318.785,482.282)"><circle r="0.0" /></g><g id="node-11" transform="translate(318.025,466.719)"><circle r="0.0" /></g><g id="node-12" transform="translate(267.811,451.157)"><circle r="0.0" /></g><g id="node-13" transform="translate(267.812,435.594)"><circle r="0.0" /></g><g id="node-14" transform="translate(197.119,420.032)"><circle r="0.0" /></g><g id="node-15" transform="translate(436.312,404.469)"><circle r="0.0" /></g><g id="node-16" transform="translate(436.312,388.906)"><circle r="0.0" /></g><g id="node-17" transform="translate(523.525,373.344)"><circle r="0.0" /></g><g id="node-18" transform="translate(489.813,357.781)"><circle r="0.0" /></g><g id="node-19" transform="translate(519.283,342.219)"><circle r="0.0" /></g><g id="node-20" transform="translate(517.364,326.656)"><circle r="0.0" /></g><g id="node-21" transform="translate(299.611,311.094)"><circle r="0.0" /></g><g id="node-22" transform="translate(343.440,295.531)"><circle r="0.0" /></g><g id="node-23" transform="translate(291.296,279.968)"><circle r="0.0" /></g><g id="node-24" transform="translate(339.531,264.406)"><circle r="0.0" /></g><g id="node-25" transform="translate(498.459,248.843)"><circle r="0.0" /></g><g id="node-26" transform="translate(470.720,233.281)"><circle r="0.0" /></g><g id="node-27" transform="translate(244.820,217.718)"><circle r="0.0" /></g><g id="node-28" transform="translate(280.433,202.155)"><circle r="0.0" /></g><g id="node-29" transform="translate(372.074,186.593)"><circle r="0.0" /></g><g id="node-30" transform="translate(295.651,171.030)"><circle r="0.0" /></g><g id="node-31" transform="translate(245.676,155.468)"><circle r="0.0" /></g><g id="node-32" transform="translate(211.454,139.905)"><circle r="0.0" /></g><g id="node-33" transform="translate(398.944,124.342)"><circle r="0.0" /></g><g id="node-34" transform="translate(548.740,108.780)"><circle r="0.0" /></g><g id="node-35" transform="translate(320.185,93.217)"><circle r="0.0" /></g><g id="node-36" transform="translate(195.513,77.655)"><circle r="0.0" /></g><g id="node-37" transform="translate(51.685,62.092)"><circle r="0.0" /></g><g id="node-38" transform="translate(409.909,630.127)"><circle r="10.0" /></g><g id="node-39" transform="translate(465.820,599.001)"><circle r="10.0" /></g><g id="node-40" transform="translate(393.104,614.564)"><circle r="10.0" /></g><g id="node-41" transform="translate(376.283,595.111)"><circle r="10.0" /></g><g id="node-42" transform="translate(376.282,577.603)"><circle r="10.0" /></g><g id="node-43" transform="translate(376.280,561.068)"><circle r="10.0" /></g><g id="node-44" transform="translate(367.257,545.019)"><circle r="10.0" /></g><g id="node-45" transform="translate(324.283,529.213)"><circle r="10.0" /></g><g id="node-46" transform="translate(324.282,513.529)"><circle r="10.0" /></g><g id="node-47" transform="translate(436.311,396.688)"><circle r="10.0" /></g><g id="node-48" transform="translate(489.811,365.563)"><circle r="10.0" /></g><g id="node-49" transform="translate(339.530,256.624)"><circle r="10.0" /></g><g id="node-50" transform="translate(300.998,497.905)"><circle r="10.0" /></g><g id="node-51" transform="translate(400.591,381.125)"><circle r="10.0" /></g><g id="node-52" transform="translate(481.110,334.437)"><circle r="10.0" /></g><g id="node-53" transform="translate(339.528,244.953)"><circle r="10.0" /></g><g id="node-54" transform="translate(259.452,178.812)"><circle r="10.0" /></g><g id="node-55" transform="translate(300.996,482.312)"><circle r="10.0" /></g><g id="node-56" transform="translate(267.810,443.376)"><circle r="10.0" /></g><g id="node-57" transform="translate(375.238,357.781)"><circle r="10.0" /></g><g id="node-58" transform="translate(299.610,303.312)"><circle r="10.0" /></g><g id="node-59" transform="translate(208.774,231.335)"><circle r="10.0" /></g><g id="node-60" transform="translate(223.940,167.140)"><circle r="10.0" /></g><g id="node-61" transform="translate(372.212,116.561)"><circle r="10.0" /></g><g id="node-62" transform="translate(267.808,462.844)"><circle r="10.0" /></g><g id="node-63" transform="translate(256.832,330.547)"><circle r="10.0" /></g><g id="node-64" transform="translate(172.962,216.745)"><circle r="10.0" /></g><g id="node-65" transform="translate(137.373,153.522)"><circle r="10.0" /></g><g id="node-66" transform="translate(239.866,104.889)"><circle r="10.0" /></g><g id="node-67" transform="translate(197.118,441.438)"><circle r="10.0" /></g><g id="node-68" transform="translate(202.987,305.258)"><circle r="10.0" /></g><g id="node-69" transform="translate(137.372,185.134)"><circle r="10.0" /></g><g id="node-70" transform="translate(131.155,91.272)"><circle r="10.0" /></g><g id="node-71" transform="translate(155.957,373.348)"><circle r="10.0" /></g><g id="node-72" transform="translate(103.214,138.203)"><circle r="10.0" /></g><g id="node-73" transform="translate(51.683,191.214)"><circle r="0.0" /></g></g><g class="toytree-NodeLabels" style="fill:rgb(14.9%,14.9%,14.9%);fill-opacity:1.0;font-size:9px;stroke:none"><g transform="translate(404.90,632.43)"><title>idx: 38
dist: 0.0255
support: 81.0000
height: 0.2234
name: 38</title><text>81</text></g><g transform="translate(460.82,601.30)"><title>idx: 39
dist: 0.1104
support: 92.0000
height: 0.1385
name: 39</title><text>92</text></g><g transform="translate(388.10,616.86)"><title>idx: 40
dist: 0.0255
support: 53.0000
height: 0.2489
name: 40</title><text>53</text></g><g transform="translate(371.28,597.41)"><title>idx: 41
dist: 0.0000
support: 29.0000
height: 0.2744
name: 41</title><text>29</text></g><g transform="translate(371.28,579.90)"><title>idx: 42
dist: 0.0000
support: 42.0000
height: 0.2744
name: 42</title><text>42</text></g><g transform="translate(371.28,563.37)"><title>idx: 43
dist: 0.0137
support: 40.0000
height: 0.2744
name: 43</title><text>40</text></g><g transform="translate(362.25,547.32)"><title>idx: 44
dist: 0.0652
support: 60.0000
height: 0.2881
name: 44</title><text>60</text></g><g transform="translate(319.28,531.51)"><title>idx: 45
dist: 0.0000
support: 38.0000
height: 0.3534
name: 45</title><text>38</text></g><g transform="translate(319.28,515.83)"><title>idx: 46
dist: 0.0353
support: 60.0000
height: 0.3534
name: 46</title><text>60</text></g><g transform="translate(431.31,398.99)"><title>idx: 47
dist: 0.0542
support: 98.0000
height: 0.1833
name: 47</title><text>98</text></g><g transform="translate(484.81,367.86)"><title>idx: 48
dist: 0.1354
support: 73.0000
height: 0.1021
name: 48</title><text>73</text></g><g transform="translate(334.53,258.92)"><title>idx: 49
dist: 0.0000
support: 77.0000
height: 0.3302
name: 49</title><text>77</text></g><g transform="translate(295.99,500.20)"><title>idx: 50
dist: 0.0000
support: 48.0000
height: 0.3887
name: 50</title><text>48</text></g><g transform="translate(395.59,383.42)"><title>idx: 51
dist: 0.0385
support: 71.0000
height: 0.2375
name: 51</title><text>71</text></g><g transform="translate(476.11,336.74)"><title>idx: 52
dist: 0.1607
support: 99.0000
height: 0.1153
name: 52</title><text>99</text></g><g transform="translate(334.52,247.25)"><title>idx: 53
dist: 0.1985
support: 67.0000
height: 0.3302
name: 53</title><text>67</text></g><g transform="translate(254.45,181.11)"><title>idx: 54
dist: 0.0539
support: 41.0000
height: 0.4518
name: 54</title><text>41</text></g><g transform="translate(295.99,484.61)"><title>idx: 55
dist: 0.0504
support: 64.0000
height: 0.3887
name: 55</title><text>64</text></g><g transform="translate(262.81,445.68)"><title>idx: 56
dist: 0.0000
support: 74.0000
height: 0.4391
name: 56</title><text>74</text></g><g transform="translate(370.23,360.08)"><title>idx: 57
dist: 0.1797
support: 96.0000
height: 0.2760
name: 57</title><text>96</text></g><g transform="translate(294.61,305.61)"><title>idx: 58
dist: 0.0649
support: 82.0000
height: 0.3908
name: 58</title><text>82</text></g><g transform="translate(203.77,233.63)"><title>idx: 59
dist: 0.0544
support: 55.0000
height: 0.5287
name: 59</title><text>55</text></g><g transform="translate(218.94,169.44)"><title>idx: 60
dist: 0.1314
support: 83.0000
height: 0.5057
name: 60</title><text>83</text></g><g transform="translate(367.21,118.86)"><title>idx: 61
dist: 0.2009
support: 85.0000
height: 0.2806
name: 61</title><text>85</text></g><g transform="translate(262.80,465.14)"><title>idx: 62
dist: 0.1073
support: 57.0000
height: 0.4391
name: 62</title><text>57</text></g><g transform="translate(251.83,332.85)"><title>idx: 63
dist: 0.0817
support: 70.0000
height: 0.4558
name: 63</title><text>70</text></g><g transform="translate(167.96,219.04)"><title>idx: 64
dist: 0.0540
support: 45.0000
height: 0.5831
name: 64</title><text>45</text></g><g transform="translate(132.37,155.82)"><title>idx: 65
dist: 0.0000
support: 19.0000
height: 0.6371
name: 65</title><text>19</text></g><g transform="translate(234.86,107.19)"><title>idx: 66
dist: 0.1650
support: 68.0000
height: 0.4815
name: 66</title><text>68</text></g><g transform="translate(192.11,443.74)"><title>idx: 67
dist: 0.0625
support: 56.0000
height: 0.5464
name: 67</title><text>56</text></g><g transform="translate(197.98,307.56)"><title>idx: 68
dist: 0.0714
support: 57.0000
height: 0.5375
name: 68</title><text>57</text></g><g transform="translate(132.37,187.43)"><title>idx: 69
dist: 0.0519
support: 22.0000
height: 0.6371
name: 69</title><text>22</text></g><g transform="translate(126.15,93.57)"><title>idx: 70
dist: 0.0424
support: 28.0000
height: 0.6465
name: 70</title><text>28</text></g><g transform="translate(150.95,375.65)"><title>idx: 71
dist: 0.1583
support: 90.0000
height: 0.6089
name: 71</title><text>90</text></g><g transform="translate(98.21,140.50)"><title>idx: 72
dist: 0.0782
support: 35.0000
height: 0.6889
name: 72</title><text>35</text></g></g><g class="toytree-TipLabels" style="fill:rgb(14.9%,14.9%,14.9%);fill-opacity:1.0;font-family:helvetica;font-size:11px;font-weight:normal;stroke:none;white-space:pre"><g transform="translate(499.44,637.91)rotate(0)"><text x="15.00" y="2.81" style="">1910</text></g><g transform="translate(427.20,622.35)rotate(0)"><text x="15.00" y="2.81" style="">606</text></g><g transform="translate(557.06,606.78)rotate(0)"><text x="15.00" y="2.81" style="">915</text></g><g transform="translate(481.00,591.22)rotate(0)"><text x="15.00" y="2.81" style="">88</text></g><g transform="translate(392.88,575.66)rotate(0)"><text x="15.00" y="2.81" style="">2495</text></g><g transform="translate(376.28,560.09)rotate(0)"><text x="15.00" y="2.81" style="">1505</text></g><g transform="translate(376.28,544.53)rotate(0)"><text x="15.00" y="2.81" style="">syrhmg</text></g><g transform="translate(376.28,528.97)rotate(0)"><text x="15.00" y="2.81" style="">1611</text></g><g transform="translate(434.79,513.41)rotate(0)"><text x="15.00" y="2.81" style="">syrp</text></g><g transform="translate(341.81,497.84)rotate(0)"><text x="15.00" y="2.81" style="">syrh</text></g><g transform="translate(318.78,482.28)rotate(0)"><text x="15.00" y="2.81" style="">Chrysostom</text></g><g transform="translate(318.02,466.72)rotate(0)"><text x="15.00" y="2.81" style="">424</text></g><g transform="translate(267.81,451.16)rotate(0)"><text x="15.00" y="2.81" style="">35</text></g><g transform="translate(267.81,435.59)rotate(0)"><text x="15.00" y="2.81" style="">18</text></g><g transform="translate(197.12,420.03)rotate(0)"><text x="15.00" y="2.81" style="">TheodoreOfMopsuestia</text></g><g transform="translate(436.31,404.47)rotate(0)"><text x="15.00" y="2.81" style="">012</text></g><g transform="translate(436.31,388.91)rotate(0)"><text x="15.00" y="2.81" style="">010</text></g><g transform="translate(523.53,373.34)rotate(0)"><text x="15.00" y="2.81" style="">06C1</text></g><g transform="translate(489.81,357.78)rotate(0)"><text x="15.00" y="2.81" style="">06</text></g><g transform="translate(519.28,342.22)rotate(0)"><text x="15.00" y="2.81" style="">MariusVictorinus</text></g><g transform="translate(517.36,326.66)rotate(0)"><text x="15.00" y="2.81" style="">Ambrosiaster</text></g><g transform="translate(299.61,311.09)rotate(0)"><text x="15.00" y="2.81" style="">Pelagius</text></g><g transform="translate(343.44,295.53)rotate(0)"><text x="15.00" y="2.81" style="">vg</text></g><g transform="translate(291.30,279.97)rotate(0)"><text x="15.00" y="2.81" style="">06C2</text></g><g transform="translate(339.53,264.41)rotate(0)"><text x="15.00" y="2.81" style="">copbo</text></g><g transform="translate(498.46,248.84)rotate(0)"><text x="15.00" y="2.81" style="">copsa</text></g><g transform="translate(470.72,233.28)rotate(0)"><text x="15.00" y="2.81" style="">04</text></g><g transform="translate(244.82,217.72)rotate(0)"><text x="15.00" y="2.81" style="">02</text></g><g transform="translate(280.43,202.16)rotate(0)"><text x="15.00" y="2.81" style="">01</text></g><g transform="translate(372.07,186.59)rotate(0)"><text x="15.00" y="2.81" style="">1881</text></g><g transform="translate(295.65,171.03)rotate(0)"><text x="15.00" y="2.81" style="">1739</text></g><g transform="translate(245.68,155.47)rotate(0)"><text x="15.00" y="2.81" style="">424C</text></g><g transform="translate(211.45,139.91)rotate(0)"><text x="15.00" y="2.81" style="">Jerome</text></g><g transform="translate(398.94,124.34)rotate(0)"><text x="15.00" y="2.81" style="">03</text></g><g transform="translate(548.74,108.78)rotate(0)"><text x="15.00" y="2.81" style="">P46</text></g><g transform="translate(320.19,93.22)rotate(0)"><text x="15.00" y="2.81" style="">1175</text></g><g transform="translate(195.51,77.65)rotate(0)"><text x="15.00" y="2.81" style="">33</text></g><g transform="translate(51.68,62.09)rotate(0)"><text x="15.00" y="2.81" style="">UBS</text></g></g></g></g></g></svg>