<svg class="toyplot-canvas-Canvas" xmlns:toyplot="http://www.sandia.gov/toyplot" xmlns:xlink="http://www.w3.org/1999/xlink" xmlns="http://www.w3.org/2000/svg" width="700.0px" height="700.0px" viewBox="0 0 700.0 700.0" preserveAspectRatio="xMidYMid meet" style="background-color:transparent;border-color:#292724;border-style:none;border-width:1.0;fill:rgb(16.1%,15.3%,14.1%);fill-opacity:1.0;font-family:Helvetica;font-size:12px;opacity:1.0;stroke:rgb(16.1%,15.3%,14.1%);stroke-opacity:1.0;stroke-width:1.0" id="td0c9803e01634f0b9912905c572e9558"><g class="toyplot-coordinates-Cartesian" id="t4ec71fd58efb49b5a9e9941ca4d313cb"><clipPath id="t38941e8a322942d0ab62a9ed9dc1817a"><rect x="30.0" y="30.0" width="640.0" height="640.0" /></clipPath><g clip-path="url(#t38941e8a322942d0ab62a9ed9dc1817a)"><g class="toytree-mark-Toytree" id="te6acf94488384d318aa9f8d7c6c46d25"><g class="toytree-Edges" style="fill:none;stroke:rgb(14.9%,14.9%,14.9%);stroke-linecap:round;stroke-opacity:1;stroke-width:2"><path d="M 58.5 160.0 L 58.5 122.9 L 95.2 122.9" id="65,64" /><path d="M 58.5 160.0 L 58.5 295.0 L 95.2 295.0" id="65,63" /><path d="M 95.2 122.9 L 95.2 91.3 L 131.8 91.3" id="64,62" /><path d="M 95.2 122.9 L 95.2 154.5 L 113.5 154.5" id="64,61" /><path d="M 95.2 295.0 L 95.2 229.4 L 131.8 229.4" id="63,60" /><path d="M 95.2 295.0 L 95.2 360.6 L 150.1 360.6" id="63,59" /><path d="M 131.8 91.3 L 131.8 104.9 L 241.6 104.9" id="62,58" /><path d="M 113.5 154.5 L 113.5 169.1 L 150.1 169.1" id="61,57" /><path d="M 131.8 229.4 L 131.8 241.1 L 223.3 241.1" id="60,56" /><path d="M 150.1 360.6 L 150.1 297.5 L 223.3 297.5" id="59,55" /><path d="M 150.1 360.6 L 150.1 423.8 L 205.0 423.8" id="59,54" /><path d="M 241.6 104.9 L 241.6 116.6 L 351.5 116.6" id="58,53" /><path d="M 150.1 169.1 L 150.1 182.7 L 205.0 182.7" id="57,52" /><path d="M 223.3 297.5 L 223.3 272.2 L 241.6 272.2" id="55,51" /><path d="M 223.3 297.5 L 223.3 322.8 L 333.2 322.8" id="55,50" /><path d="M 205.0 423.8 L 205.0 458.7 L 259.9 458.7" id="54,49" /><path d="M 205.0 182.7 L 205.0 194.4 L 241.6 194.4" id="52,48" /><path d="M 333.2 322.8 L 333.2 303.3 L 443.0 303.3" id="50,47" /><path d="M 333.2 322.8 L 333.2 342.2 L 369.8 342.2" id="50,46" /><path d="M 259.9 458.7 L 259.9 482.3 L 278.3 482.3" id="49,45" /><path d="M 259.9 458.7 L 259.9 558.6 L 278.3 558.6" id="49,44" /><path d="M 369.8 342.2 L 369.8 357.8 L 479.7 357.8" id="46,43" /><path d="M 278.3 482.3 L 278.3 497.8 L 314.9 497.8" id="45,42" /><path d="M 278.3 558.6 L 278.3 600.9 L 296.6 600.9" id="44,41" /><path d="M 296.6 600.9 L 296.6 583.4 L 314.9 583.4" id="41,40" /><path d="M 296.6 600.9 L 296.6 618.5 L 369.8 618.5" id="41,39" /><path d="M 369.8 618.5 L 369.8 630.1 L 406.4 630.1" id="39,38" /><path d="M 58.5 160.0 L 58.5 62.1 L 58.5 62.1" id="65,37" /><path d="M 131.8 91.3 L 131.8 77.7 L 205.0 77.7" id="62,36" /><path d="M 241.6 104.9 L 241.6 93.2 L 333.2 93.2" id="58,35" /><path d="M 351.5 116.6 L 351.5 108.8 L 351.5 108.8" id="53,34" /><path d="M 351.5 116.6 L 351.5 124.3 L 461.4 124.3" id="53,33" /><path d="M 113.5 154.5 L 113.5 139.9 L 186.7 139.9" id="61,32" /><path d="M 150.1 169.1 L 150.1 155.5 L 259.9 155.5" id="57,31" /><path d="M 205.0 182.7 L 205.0 171.0 L 259.9 171.0" id="52,30" /><path d="M 241.6 194.4 L 241.6 186.6 L 259.9 186.6" id="48,29" /><path d="M 241.6 194.4 L 241.6 202.2 L 351.5 202.2" id="48,28" /><path d="M 131.8 229.4 L 131.8 217.7 L 223.3 217.7" id="60,27" /><path d="M 223.3 241.1 L 223.3 233.3 L 333.2 233.3" id="56,26" /><path d="M 223.3 241.1 L 223.3 248.8 L 241.6 248.8" id="56,25" /><path d="M 241.6 272.2 L 241.6 264.4 L 259.9 264.4" id="51,24" /><path d="M 241.6 272.2 L 241.6 280.0 L 278.3 280.0" id="51,23" /><path d="M 443.0 303.3 L 443.0 295.5 L 479.7 295.5" id="47,22" /><path d="M 443.0 303.3 L 443.0 311.1 L 479.7 311.1" id="47,21" /><path d="M 369.8 342.2 L 369.8 326.7 L 388.1 326.7" id="46,20" /><path d="M 479.7 357.8 L 479.7 342.2 L 479.7 342.2" id="43,19" /><path d="M 479.7 357.8 L 479.7 357.8 L 516.3 357.8" id="43,18" /><path d="M 479.7 357.8 L 479.7 373.3 L 571.2 373.3" id="43,17" /><path d="M 205.0 423.8 L 205.0 388.9 L 241.6 388.9" id="54,16" /><path d="M 259.9 458.7 L 259.9 404.5 L 351.5 404.5" id="49,15" /><path d="M 259.9 458.7 L 259.9 420.0 L 278.3 420.0" id="49,14" /><path d="M 259.9 458.7 L 259.9 435.6 L 369.8 435.6" id="49,13" /><path d="M 259.9 458.7 L 259.9 451.2 L 259.9 451.2" id="49,12" /><path d="M 278.3 482.3 L 278.3 466.7 L 296.6 466.7" id="45,11" /><path d="M 314.9 497.8 L 314.9 482.3 L 333.2 482.3" id="42,10" /><path d="M 314.9 497.8 L 314.9 497.8 L 333.2 497.8" id="42,9" /><path d="M 314.9 497.8 L 314.9 513.4 L 351.5 513.4" id="42,8" /><path d="M 278.3 558.6 L 278.3 529.0 L 278.3 529.0" id="44,7" /><path d="M 278.3 558.6 L 278.3 544.5 L 388.1 544.5" id="44,6" /><path d="M 278.3 558.6 L 278.3 560.1 L 296.6 560.1" id="44,5" /><path d="M 314.9 583.4 L 314.9 575.7 L 333.2 575.7" id="40,4" /><path d="M 314.9 583.4 L 314.9 591.2 L 388.1 591.2" id="40,3" /><path d="M 369.8 618.5 L 369.8 606.8 L 388.1 606.8" id="39,2" /><path d="M 406.4 630.1 L 406.4 622.3 L 461.4 622.3" id="38,1" /><path d="M 406.4 630.1 L 406.4 637.9 L 516.3 637.9" id="38,0" /></g><g class="toytree-Nodes" style="fill:rgb(40%,76.1%,64.7%);fill-opacity:1.0;stroke:None;stroke-width:1"><g id="node-0" transform="translate(516.282,637.908)"><title>idx: 0
dist: 6.0000
support: 0.0000
height: 3.0000
name: 32%1881</title><circle r="5.0" /></g><g id="node-1" transform="translate(461.354,622.345)"><title>idx: 1
dist: 3.0000
support: 0.0000
height: 6.0000
name: 915</title><circle r="5.0" /></g><g id="node-2" transform="translate(388.116,606.783)"><title>idx: 2
dist: 1.0000
support: 0.0000
height: 10.0000
name: 88</title><circle r="5.0" /></g><g id="node-3" transform="translate(388.116,591.220)"><title>idx: 3
dist: 4.0000
support: 0.0000
height: 10.0000
name: 1910</title><circle r="5.0" /></g><g id="node-4" transform="translate(333.187,575.658)"><title>idx: 4
dist: 1.0000
support: 0.0000
height: 13.0000
name: 606</title><circle r="5.0" /></g><g id="node-5" transform="translate(296.568,560.095)"><title>idx: 5
dist: 1.0000
support: 0.0000
height: 15.0000
name: 2495</title><circle r="5.0" /></g><g id="node-6" transform="translate(388.116,544.532)"><title>idx: 6
dist: 6.0000
support: 0.0000
height: 10.0000
name: 52%1175</title><circle r="5.0" /></g><g id="node-7" transform="translate(278.259,528.970)"><title>idx: 7
dist: 0.0000
support: 0.0000
height: 16.0000
name: 1505</title><circle r="5.0" /></g><g id="node-8" transform="translate(351.497,513.407)"><title>idx: 8
dist: 2.0000
support: 0.0000
height: 12.0000
name: Chrysostom</title><circle r="5.0" /></g><g id="node-9" transform="translate(333.187,497.845)"><title>idx: 9
dist: 1.0000
support: 0.0000
height: 13.0000
name: 424</title><circle r="5.0" /></g><g id="node-10" transform="translate(333.187,482.282)"><title>idx: 10
dist: 1.0000
support: 0.0000
height: 13.0000
name: 18</title><circle r="5.0" /></g><g id="node-11" transform="translate(296.568,466.719)"><title>idx: 11
dist: 1.0000
support: 0.0000
height: 15.0000
name: syrh</title><circle r="5.0" /></g><g id="node-12" transform="translate(259.949,451.157)"><title>idx: 12
dist: 0.0000
support: 0.0000
height: 17.0000
name: syrhmg</title><circle r="5.0" /></g><g id="node-13" transform="translate(369.806,435.594)"><title>idx: 13
dist: 6.0000
support: 0.0000
height: 11.0000
name: syrp</title><circle r="5.0" /></g><g id="node-14" transform="translate(278.259,420.032)"><title>idx: 14
dist: 1.0000
support: 0.0000
height: 16.0000
name: 1611</title><circle r="5.0" /></g><g id="node-15" transform="translate(351.497,404.469)"><title>idx: 15
dist: 5.0000
support: 0.0000
height: 12.0000
name: 63%06C2</title><circle r="5.0" /></g><g id="node-16" transform="translate(241.640,388.906)"><title>idx: 16
dist: 2.0000
support: 0.0000
height: 18.0000
name: TheodoreOfMopsuestia</title><circle r="5.0" /></g><g id="node-17" transform="translate(571.211,373.344)"><title>idx: 17
dist: 5.0000
support: 0.0000
height: 0.0000
name: 37%06C2</title><circle r="5.0" /></g><g id="node-18" transform="translate(516.282,357.781)"><title>idx: 18
dist: 2.0000
support: 0.0000
height: 3.0000
name: 06C1</title><circle r="5.0" /></g><g id="node-19" transform="translate(479.663,342.219)"><title>idx: 19
dist: 0.0000
support: 0.0000
height: 5.0000
name: 06</title><circle r="5.0" /></g><g id="node-20" transform="translate(388.116,326.656)"><title>idx: 20
dist: 1.0000
support: 0.0000
height: 10.0000
name: 010</title><circle r="5.0" /></g><g id="node-21" transform="translate(479.663,311.094)"><title>idx: 21
dist: 2.0000
support: 0.0000
height: 5.0000
name: MariusVictorinus</title><circle r="5.0" /></g><g id="node-22" transform="translate(479.663,295.531)"><title>idx: 22
dist: 2.0000
support: 0.0000
height: 5.0000
name: Ambrosiaster</title><circle r="5.0" /></g><g id="node-23" transform="translate(278.259,279.968)"><title>idx: 23
dist: 2.0000
support: 0.0000
height: 16.0000
name: Pelagius</title><circle r="5.0" /></g><g id="node-24" transform="translate(259.949,264.406)"><title>idx: 24
dist: 1.0000
support: 0.0000
height: 17.0000
name: vg</title><circle r="5.0" /></g><g id="node-25" transform="translate(241.640,248.843)"><title>idx: 25
dist: 1.0000
support: 0.0000
height: 18.0000
name: copbo</title><circle r="5.0" /></g><g id="node-26" transform="translate(333.187,233.281)"><title>idx: 26
dist: 6.0000
support: 0.0000
height: 13.0000
name: copsa</title><circle r="5.0" /></g><g id="node-27" transform="translate(223.330,217.718)"><title>idx: 27
dist: 5.0000
support: 0.0000
height: 19.0000
name: 02</title><circle r="5.0" /></g><g id="node-28" transform="translate(351.497,202.155)"><title>idx: 28
dist: 6.0000
support: 0.0000
height: 12.0000
name: 68%1881</title><circle r="5.0" /></g><g id="node-29" transform="translate(259.949,186.593)"><title>idx: 29
dist: 1.0000
support: 0.0000
height: 17.0000
name: 1739</title><circle r="5.0" /></g><g id="node-30" transform="translate(259.949,171.030)"><title>idx: 30
dist: 3.0000
support: 0.0000
height: 17.0000
name: 424C</title><circle r="5.0" /></g><g id="node-31" transform="translate(259.949,155.468)"><title>idx: 31
dist: 6.0000
support: 0.0000
height: 17.0000
name: 01</title><circle r="5.0" /></g><g id="node-32" transform="translate(186.711,139.905)"><title>idx: 32
dist: 4.0000
support: 0.0000
height: 21.0000
name: Jerome</title><circle r="5.0" /></g><g id="node-33" transform="translate(461.354,124.342)"><title>idx: 33
dist: 6.0000
support: 0.0000
height: 6.0000
name: 48%1175</title><circle r="5.0" /></g><g id="node-34" transform="translate(351.497,108.780)"><title>idx: 34
dist: 0.0000
support: 0.0000
height: 12.0000
name: 03</title><circle r="5.0" /></g><g id="node-35" transform="translate(333.187,93.217)"><title>idx: 35
dist: 5.0000
support: 0.0000
height: 13.0000
name: P46</title><circle r="5.0" /></g><g id="node-36" transform="translate(205.021,77.655)"><title>idx: 36
dist: 4.0000
support: 0.0000
height: 20.0000
name: 33</title><circle r="5.0" /></g><g id="node-37" transform="translate(58.544,62.092)"><title>idx: 37
dist: 0.0000
support: 0.0000
height: 28.0000
name: UBS</title><circle r="5.0" /></g><g id="node-38" transform="translate(406.425,630.127)"><title>idx: 38
dist: 2.0000
support: 0.0000
height: 9.0000
name: 38</title><circle r="5.0" /></g><g id="node-39" transform="translate(369.806,618.455)"><title>idx: 39
dist: 4.0000
support: 0.0000
height: 11.0000
name: 39</title><circle r="5.0" /></g><g id="node-40" transform="translate(314.878,583.439)"><title>idx: 40
dist: 1.0000
support: 0.0000
height: 14.0000
name: 40</title><circle r="5.0" /></g><g id="node-41" transform="translate(296.568,600.947)"><title>idx: 41
dist: 1.0000
support: 0.0000
height: 15.0000
name: 41</title><circle r="5.0" /></g><g id="node-42" transform="translate(314.878,497.845)"><title>idx: 42
dist: 2.0000
support: 0.0000
height: 14.0000
name: 42</title><circle r="5.0" /></g><g id="node-43" transform="translate(479.663,357.781)"><title>idx: 43
dist: 6.0000
support: 0.0000
height: 5.0000
name: 43</title><circle r="5.0" /></g><g id="node-44" transform="translate(278.259,558.636)"><title>idx: 44
dist: 1.0000
support: 0.0000
height: 16.0000
name: 44</title><circle r="5.0" /></g><g id="node-45" transform="translate(278.259,482.282)"><title>idx: 45
dist: 1.0000
support: 0.0000
height: 16.0000
name: 45</title><circle r="5.0" /></g><g id="node-46" transform="translate(369.806,342.219)"><title>idx: 46
dist: 2.0000
support: 0.0000
height: 11.0000
name: 46</title><circle r="5.0" /></g><g id="node-47" transform="translate(443.044,303.312)"><title>idx: 47
dist: 6.0000
support: 0.0000
height: 7.0000
name: 47</title><circle r="5.0" /></g><g id="node-48" transform="translate(241.640,194.374)"><title>idx: 48
dist: 2.0000
support: 0.0000
height: 18.0000
name: 48</title><circle r="5.0" /></g><g id="node-49" transform="translate(259.949,458.695)"><title>idx: 49
dist: 3.0000
support: 0.0000
height: 17.0000
name: 49</title><circle r="5.0" /></g><g id="node-50" transform="translate(333.187,322.765)"><title>idx: 50
dist: 6.0000
support: 0.0000
height: 13.0000
name: 50</title><circle r="5.0" /></g><g id="node-51" transform="translate(241.640,272.187)"><title>idx: 51
dist: 1.0000
support: 0.0000
height: 18.0000
name: 51</title><circle r="5.0" /></g><g id="node-52" transform="translate(205.021,182.702)"><title>idx: 52
dist: 3.0000
support: 0.0000
height: 20.0000
name: 52</title><circle r="5.0" /></g><g id="node-53" transform="translate(351.497,116.561)"><title>idx: 53
dist: 6.0000
support: 0.0000
height: 12.0000
name: 53</title><circle r="5.0" /></g><g id="node-54" transform="translate(205.021,423.801)"><title>idx: 54
dist: 3.0000
support: 0.0000
height: 20.0000
name: 54</title><circle r="5.0" /></g><g id="node-55" transform="translate(223.330,297.476)"><title>idx: 55
dist: 4.0000
support: 0.0000
height: 19.0000
name: 55</title><circle r="5.0" /></g><g id="node-56" transform="translate(223.330,241.062)"><title>idx: 56
dist: 5.0000
support: 0.0000
height: 19.0000
name: 56</title><circle r="5.0" /></g><g id="node-57" transform="translate(150.092,169.085)"><title>idx: 57
dist: 2.0000
support: 0.0000
height: 23.0000
name: 57</title><circle r="5.0" /></g><g id="node-58" transform="translate(241.640,104.889)"><title>idx: 58
dist: 6.0000
support: 0.0000
height: 18.0000
name: 58</title><circle r="5.0" /></g><g id="node-59" transform="translate(150.092,360.638)"><title>idx: 59
dist: 3.0000
support: 0.0000
height: 23.0000
name: 59</title><circle r="5.0" /></g><g id="node-60" transform="translate(131.783,229.390)"><title>idx: 60
dist: 2.0000
support: 0.0000
height: 24.0000
name: 60</title><circle r="5.0" /></g><g id="node-61" transform="translate(113.473,154.495)"><title>idx: 61
dist: 1.0000
support: 0.0000
height: 25.0000
name: 61</title><circle r="5.0" /></g><g id="node-62" transform="translate(131.783,91.272)"><title>idx: 62
dist: 2.0000
support: 0.0000
height: 24.0000
name: 62</title><circle r="5.0" /></g><g id="node-63" transform="translate(95.163,295.014)"><title>idx: 63
dist: 2.0000
support: 0.0000
height: 26.0000
name: 63</title><circle r="5.0" /></g><g id="node-64" transform="translate(95.163,122.883)"><title>idx: 64
dist: 2.0000
support: 0.0000
height: 26.0000
name: 64</title><circle r="5.0" /></g><g id="node-65" transform="translate(58.544,159.997)"><title>idx: 65
dist: 0.0000
support: 0.0000
height: 28.0000
name: 65</title><circle r="5.0" /></g></g><g class="toytree-TipLabels" style="fill:rgb(14.9%,14.9%,14.9%);fill-opacity:1.0;font-family:helvetica;font-size:11px;font-weight:normal;stroke:none;white-space:pre"><g transform="translate(516.28,637.91)rotate(0)"><text x="15.00" y="2.81" style="">32%1881</text></g><g transform="translate(461.35,622.35)rotate(0)"><text x="15.00" y="2.81" style="">915</text></g><g transform="translate(388.12,606.78)rotate(0)"><text x="15.00" y="2.81" style="">88</text></g><g transform="translate(388.12,591.22)rotate(0)"><text x="15.00" y="2.81" style="">1910</text></g><g transform="translate(333.19,575.66)rotate(0)"><text x="15.00" y="2.81" style="">606</text></g><g transform="translate(296.57,560.09)rotate(0)"><text x="15.00" y="2.81" style="">2495</text></g><g transform="translate(388.12,544.53)rotate(0)"><text x="15.00" y="2.81" style="">52%1175</text></g><g transform="translate(278.26,528.97)rotate(0)"><text x="15.00" y="2.81" style="">1505</text></g><g transform="translate(351.50,513.41)rotate(0)"><text x="15.00" y="2.81" style="">Chrysostom</text></g><g transform="translate(333.19,497.84)rotate(0)"><text x="15.00" y="2.81" style="">424</text></g><g transform="translate(333.19,482.28)rotate(0)"><text x="15.00" y="2.81" style="">18</text></g><g transform="translate(296.57,466.72)rotate(0)"><text x="15.00" y="2.81" style="">syrh</text></g><g transform="translate(259.95,451.16)rotate(0)"><text x="15.00" y="2.81" style="">syrhmg</text></g><g transform="translate(369.81,435.59)rotate(0)"><text x="15.00" y="2.81" style="">syrp</text></g><g transform="translate(278.26,420.03)rotate(0)"><text x="15.00" y="2.81" style="">1611</text></g><g transform="translate(351.50,404.47)rotate(0)"><text x="15.00" y="2.81" style="">63%06C2</text></g><g transform="translate(241.64,388.91)rotate(0)"><text x="15.00" y="2.81" style="">TheodoreOfMopsuestia</text></g><g transform="translate(571.21,373.34)rotate(0)"><text x="15.00" y="2.81" style="">37%06C2</text></g><g transform="translate(516.28,357.78)rotate(0)"><text x="15.00" y="2.81" style="">06C1</text></g><g transform="translate(479.66,342.22)rotate(0)"><text x="15.00" y="2.81" style="">06</text></g><g transform="translate(388.12,326.66)rotate(0)"><text x="15.00" y="2.81" style="">010</text></g><g transform="translate(479.66,311.09)rotate(0)"><text x="15.00" y="2.81" style="">MariusVictorinus</text></g><g transform="translate(479.66,295.53)rotate(0)"><text x="15.00" y="2.81" style="">Ambrosiaster</text></g><g transform="translate(278.26,279.97)rotate(0)"><text x="15.00" y="2.81" style="">Pelagius</text></g><g transform="translate(259.95,264.41)rotate(0)"><text x="15.00" y="2.81" style="">vg</text></g><g transform="translate(241.64,248.84)rotate(0)"><text x="15.00" y="2.81" style="">copbo</text></g><g transform="translate(333.19,233.28)rotate(0)"><text x="15.00" y="2.81" style="">copsa</text></g><g transform="translate(223.33,217.72)rotate(0)"><text x="15.00" y="2.81" style="">02</text></g><g transform="translate(351.50,202.16)rotate(0)"><text x="15.00" y="2.81" style="">68%1881</text></g><g transform="translate(259.95,186.59)rotate(0)"><text x="15.00" y="2.81" style="">1739</text></g><g transform="translate(259.95,171.03)rotate(0)"><text x="15.00" y="2.81" style="">424C</text></g><g transform="translate(259.95,155.47)rotate(0)"><text x="15.00" y="2.81" style="">01</text></g><g transform="translate(186.71,139.91)rotate(0)"><text x="15.00" y="2.81" style="">Jerome</text></g><g transform="translate(461.35,124.34)rotate(0)"><text x="15.00" y="2.81" style="">48%1175</text></g><g transform="translate(351.50,108.78)rotate(0)"><text x="15.00" y="2.81" style="">03</text></g><g transform="translate(333.19,93.22)rotate(0)"><text x="15.00" y="2.81" style="">P46</text></g><g transform="translate(205.02,77.65)rotate(0)"><text x="15.00" y="2.81" style="">33</text></g><g transform="translate(58.54,62.09)rotate(0)"><text x="15.00" y="2.81" style="">UBS</text></g></g></g></g></g></svg>