<?xml version="1.0" encoding="UTF-8" standalone="no"?>
<!DOCTYPE svg PUBLIC "-//W3C//DTD SVG 1.1//EN" "http://www.w3.org/Graphics/SVG/1.1/DTD/svg11.dtd">
<svg width="100%" height="100%" viewBox="0 0 1280 640" version="1.1" xmlns="http://www.w3.org/2000/svg" xmlns:xlink="http://www.w3.org/1999/xlink" xml:space="preserve" xmlns:serif="http://www.serif.com/" style="fill-rule:evenodd;clip-rule:evenodd;stroke-linecap:round;stroke-linejoin:round;stroke-miterlimit:1.5;">
    <rect id="Artboard1" x="0" y="0" width="1280" height="640" style="fill:none;"/>
    <g id="Artboard11" serif:id="Artboard1">
        <g transform="matrix(22.575,0,0,22.575,-13053,-3806.81)">
            <g transform="matrix(2.38946,0,0,2.38946,609.039,186.893)">
                <path d="M0.459,-0.633L0.454,-0.593L0.347,-0.596L0.269,-0.596L0.266,-0.197L0.268,-0L0.216,-0L0.219,-0.194L0.216,-0.596L0.138,-0.596L0.029,-0.593L0.025,-0.599L0.03,-0.639L0.454,-0.639L0.459,-0.633Z" style="fill:rgb(89,89,89);fill-rule:nonzero;"/>
            </g>
            <g transform="matrix(2.38946,0,0,2.38946,610.193,186.893)">
                <path d="M0.443,-0.041L0.438,-0L0.101,-0L0.104,-0.194L0.101,-0.639L0.437,-0.639L0.441,-0.633L0.435,-0.592L0.286,-0.594L0.154,-0.593L0.152,-0.352L0.277,-0.351L0.384,-0.352L0.388,-0.347L0.383,-0.306L0.152,-0.307L0.151,-0.197L0.153,-0.045L0.282,-0.044L0.439,-0.047L0.443,-0.041Z" style="fill:rgb(89,89,89);fill-rule:nonzero;"/>
            </g>
            <g transform="matrix(2.38946,0,0,2.38946,611.314,186.893)">
                <path d="M0.151,-0.197L0.153,-0L0.101,-0L0.104,-0.194L0.101,-0.639L0.154,-0.639L0.151,-0.197Z" style="fill:rgb(89,89,89);fill-rule:nonzero;"/>
            </g>
            <g transform="matrix(2.38946,0,0,2.38946,612.334,186.893)">
                <path d="M0.324,-0.332L0.549,-0L0.485,-0L0.459,-0.045L0.289,-0.291L0.118,-0.042L0.094,-0L0.036,-0L0.259,-0.327L0.046,-0.639L0.111,-0.639L0.135,-0.596L0.292,-0.367L0.447,-0.594L0.472,-0.639L0.531,-0.639L0.324,-0.332Z" style="fill:rgb(89,89,89);fill-rule:nonzero;"/>
            </g>
            <g transform="matrix(2.38946,0,0,2.38946,613.727,186.893)">
                <path d="M0.717,-0L0.669,-0L0.652,-0.195L0.613,-0.549L0.607,-0.549L0.412,-0.077L0.365,-0.077L0.177,-0.549L0.171,-0.549L0.132,-0.198L0.113,-0L0.067,-0L0.136,-0.639L0.195,-0.639L0.231,-0.541L0.388,-0.146L0.393,-0.146L0.559,-0.549L0.593,-0.639L0.652,-0.639L0.717,-0Z" style="fill:rgb(89,89,89);fill-rule:nonzero;"/>
            </g>
            <g transform="matrix(2.38946,0,0,2.38946,615.603,186.893)">
                <path d="M0.404,-0.039L0.398,-0L0.099,-0L0.102,-0.194L0.099,-0.639L0.152,-0.639L0.149,-0.197L0.151,-0.045L0.399,-0.045L0.404,-0.039Z" style="fill:rgb(89,89,89);fill-rule:nonzero;"/>
            </g>
            <g transform="matrix(2.38946,0,0,2.38946,616.989,186.893)">
                <path d="M0.224,-0.462C0.265,-0.462 0.296,-0.452 0.319,-0.431C0.342,-0.41 0.353,-0.382 0.353,-0.345C0.353,-0.331 0.352,-0.313 0.351,-0.29C0.35,-0.267 0.349,-0.242 0.348,-0.216C0.344,-0.14 0.342,-0.097 0.342,-0.087C0.342,-0.07 0.345,-0.057 0.35,-0.051C0.355,-0.044 0.363,-0.04 0.375,-0.04C0.387,-0.04 0.4,-0.043 0.413,-0.05L0.42,-0.045L0.414,-0.012C0.398,-0.002 0.381,0.003 0.363,0.004C0.323,0.003 0.302,-0.022 0.3,-0.071L0.295,-0.071C0.257,-0.028 0.218,-0.002 0.177,0.006C0.137,0.006 0.106,-0.005 0.083,-0.026C0.06,-0.047 0.049,-0.076 0.049,-0.113C0.049,-0.167 0.078,-0.201 0.137,-0.214L0.303,-0.253L0.305,-0.334C0.305,-0.363 0.297,-0.385 0.282,-0.4C0.267,-0.415 0.245,-0.422 0.217,-0.422C0.174,-0.422 0.128,-0.4 0.077,-0.357L0.071,-0.36L0.063,-0.397C0.118,-0.44 0.171,-0.462 0.224,-0.462ZM0.147,-0.179C0.113,-0.171 0.096,-0.151 0.096,-0.119C0.096,-0.094 0.103,-0.074 0.117,-0.06C0.131,-0.045 0.15,-0.038 0.175,-0.038C0.195,-0.038 0.216,-0.045 0.237,-0.059C0.258,-0.073 0.278,-0.093 0.298,-0.119L0.302,-0.216L0.147,-0.179Z" style="fill:rgb(89,89,89);fill-rule:nonzero;"/>
            </g>
            <g transform="matrix(2.38946,0,0,2.38946,618.071,186.893)">
                <path d="M0.28,-0.46C0.335,-0.46 0.378,-0.441 0.409,-0.403C0.439,-0.365 0.454,-0.311 0.454,-0.24C0.454,-0.162 0.435,-0.101 0.397,-0.059C0.359,-0.016 0.305,0.006 0.236,0.006C0.203,0.006 0.17,0.003 0.139,-0.003L0.14,0.185L0.089,0.185L0.092,-0.195L0.089,-0.451L0.139,-0.457L0.139,-0.391L0.144,-0.391C0.185,-0.431 0.231,-0.454 0.28,-0.46ZM0.241,-0.033C0.293,-0.033 0.333,-0.051 0.362,-0.086C0.391,-0.121 0.405,-0.17 0.405,-0.233C0.405,-0.292 0.394,-0.337 0.372,-0.369C0.349,-0.4 0.317,-0.416 0.276,-0.416C0.227,-0.416 0.182,-0.391 0.139,-0.34L0.138,-0.198L0.139,-0.056C0.176,-0.041 0.21,-0.033 0.241,-0.033Z" style="fill:rgb(89,89,89);fill-rule:nonzero;"/>
            </g>
            <g transform="matrix(2.38946,0,0,2.38946,619.276,186.893)">
                <path d="M0.28,-0.46C0.335,-0.46 0.378,-0.441 0.409,-0.403C0.439,-0.365 0.454,-0.311 0.454,-0.24C0.454,-0.162 0.435,-0.101 0.397,-0.059C0.359,-0.016 0.305,0.006 0.236,0.006C0.203,0.006 0.17,0.003 0.139,-0.003L0.14,0.185L0.089,0.185L0.092,-0.195L0.089,-0.451L0.139,-0.457L0.139,-0.391L0.144,-0.391C0.185,-0.431 0.231,-0.454 0.28,-0.46ZM0.241,-0.033C0.293,-0.033 0.333,-0.051 0.362,-0.086C0.391,-0.121 0.405,-0.17 0.405,-0.233C0.405,-0.292 0.394,-0.337 0.372,-0.369C0.349,-0.4 0.317,-0.416 0.276,-0.416C0.227,-0.416 0.182,-0.391 0.139,-0.34L0.138,-0.198L0.139,-0.056C0.176,-0.041 0.21,-0.033 0.241,-0.033Z" style="fill:rgb(89,89,89);fill-rule:nonzero;"/>
            </g>
            <g transform="matrix(2.38946,0,0,2.38946,620.48,186.893)">
                <path d="M0.224,-0.462C0.265,-0.462 0.296,-0.452 0.319,-0.431C0.342,-0.41 0.353,-0.382 0.353,-0.345C0.353,-0.331 0.352,-0.313 0.351,-0.29C0.35,-0.267 0.349,-0.242 0.348,-0.216C0.344,-0.14 0.342,-0.097 0.342,-0.087C0.342,-0.07 0.345,-0.057 0.35,-0.051C0.355,-0.044 0.363,-0.04 0.375,-0.04C0.387,-0.04 0.4,-0.043 0.413,-0.05L0.42,-0.045L0.414,-0.012C0.398,-0.002 0.381,0.003 0.363,0.004C0.323,0.003 0.302,-0.022 0.3,-0.071L0.295,-0.071C0.257,-0.028 0.218,-0.002 0.177,0.006C0.137,0.006 0.106,-0.005 0.083,-0.026C0.06,-0.047 0.049,-0.076 0.049,-0.113C0.049,-0.167 0.078,-0.201 0.137,-0.214L0.303,-0.253L0.305,-0.334C0.305,-0.363 0.297,-0.385 0.282,-0.4C0.267,-0.415 0.245,-0.422 0.217,-0.422C0.174,-0.422 0.128,-0.4 0.077,-0.357L0.071,-0.36L0.063,-0.397C0.118,-0.44 0.171,-0.462 0.224,-0.462ZM0.147,-0.179C0.113,-0.171 0.096,-0.151 0.096,-0.119C0.096,-0.094 0.103,-0.074 0.117,-0.06C0.131,-0.045 0.15,-0.038 0.175,-0.038C0.195,-0.038 0.216,-0.045 0.237,-0.059C0.258,-0.073 0.278,-0.093 0.298,-0.119L0.302,-0.216L0.147,-0.179Z" style="fill:rgb(89,89,89);fill-rule:nonzero;"/>
            </g>
            <g transform="matrix(2.38946,0,0,2.38946,621.531,186.893)">
                <path d="M0.276,-0.456C0.284,-0.456 0.293,-0.455 0.302,-0.454L0.302,-0.404L0.295,-0.402C0.283,-0.404 0.272,-0.405 0.263,-0.405C0.24,-0.405 0.219,-0.396 0.199,-0.377C0.179,-0.358 0.159,-0.327 0.138,-0.284L0.138,-0.198L0.141,-0L0.089,-0L0.092,-0.195L0.09,-0.451L0.139,-0.457L0.139,-0.355L0.144,-0.355C0.182,-0.422 0.226,-0.456 0.276,-0.456Z" style="fill:rgb(89,89,89);fill-rule:nonzero;"/>
            </g>
            <g transform="matrix(2.38946,0,0,2.38946,622.251,186.893)">
                <path d="M0.224,-0.462C0.265,-0.462 0.296,-0.452 0.319,-0.431C0.342,-0.41 0.353,-0.382 0.353,-0.345C0.353,-0.331 0.352,-0.313 0.351,-0.29C0.35,-0.267 0.349,-0.242 0.348,-0.216C0.344,-0.14 0.342,-0.097 0.342,-0.087C0.342,-0.07 0.345,-0.057 0.35,-0.051C0.355,-0.044 0.363,-0.04 0.375,-0.04C0.387,-0.04 0.4,-0.043 0.413,-0.05L0.42,-0.045L0.414,-0.012C0.398,-0.002 0.381,0.003 0.363,0.004C0.323,0.003 0.302,-0.022 0.3,-0.071L0.295,-0.071C0.257,-0.028 0.218,-0.002 0.177,0.006C0.137,0.006 0.106,-0.005 0.083,-0.026C0.06,-0.047 0.049,-0.076 0.049,-0.113C0.049,-0.167 0.078,-0.201 0.137,-0.214L0.303,-0.253L0.305,-0.334C0.305,-0.363 0.297,-0.385 0.282,-0.4C0.267,-0.415 0.245,-0.422 0.217,-0.422C0.174,-0.422 0.128,-0.4 0.077,-0.357L0.071,-0.36L0.063,-0.397C0.118,-0.44 0.171,-0.462 0.224,-0.462ZM0.147,-0.179C0.113,-0.171 0.096,-0.151 0.096,-0.119C0.096,-0.094 0.103,-0.074 0.117,-0.06C0.131,-0.045 0.15,-0.038 0.175,-0.038C0.195,-0.038 0.216,-0.045 0.237,-0.059C0.258,-0.073 0.278,-0.093 0.298,-0.119L0.302,-0.216L0.147,-0.179Z" style="fill:rgb(89,89,89);fill-rule:nonzero;"/>
            </g>
            <g transform="matrix(2.38946,0,0,2.38946,623.333,186.893)">
                <path d="M0.213,-0.04C0.236,-0.04 0.261,-0.048 0.288,-0.063L0.294,-0.058L0.289,-0.022C0.256,-0.005 0.226,0.004 0.199,0.005C0.164,0.001 0.139,-0.011 0.122,-0.032C0.105,-0.052 0.097,-0.081 0.097,-0.119L0.099,-0.209L0.098,-0.417L0.036,-0.417L0.032,-0.422L0.036,-0.454L0.098,-0.454L0.098,-0.545L0.142,-0.563L0.148,-0.558L0.147,-0.454L0.292,-0.454L0.296,-0.449L0.292,-0.417L0.147,-0.417L0.144,-0.124C0.144,-0.095 0.15,-0.074 0.161,-0.061C0.172,-0.047 0.19,-0.04 0.213,-0.04Z" style="fill:rgb(89,89,89);fill-rule:nonzero;"/>
            </g>
            <g transform="matrix(2.38946,0,0,2.38946,624.071,186.893)">
                <path d="M0.483,-0.045L0.477,-0.012C0.461,-0.003 0.444,0.003 0.426,0.004C0.407,0.003 0.392,-0.004 0.381,-0.016C0.37,-0.028 0.364,-0.046 0.361,-0.071L0.357,-0.071C0.312,-0.026 0.265,-0 0.217,0.005C0.173,0.005 0.139,-0.007 0.116,-0.03C0.093,-0.053 0.081,-0.087 0.081,-0.131L0.082,-0.24L0.08,-0.451L0.132,-0.457L0.129,-0.141C0.129,-0.109 0.136,-0.084 0.152,-0.067C0.167,-0.049 0.188,-0.04 0.217,-0.04C0.265,-0.04 0.312,-0.065 0.359,-0.115L0.359,-0.451L0.408,-0.457L0.406,-0.089C0.406,-0.072 0.409,-0.059 0.414,-0.052C0.419,-0.044 0.427,-0.04 0.438,-0.04C0.45,-0.04 0.463,-0.043 0.476,-0.05L0.483,-0.045Z" style="fill:rgb(89,89,89);fill-rule:nonzero;"/>
            </g>
            <g transform="matrix(2.38946,0,0,2.38946,625.283,186.893)">
                <path d="M0.199,-0.46C0.234,-0.46 0.269,-0.453 0.302,-0.439L0.294,-0.396L0.285,-0.394C0.254,-0.412 0.223,-0.421 0.194,-0.421C0.167,-0.421 0.144,-0.413 0.127,-0.398C0.11,-0.383 0.101,-0.364 0.101,-0.342C0.101,-0.321 0.109,-0.304 0.125,-0.292C0.141,-0.279 0.165,-0.266 0.198,-0.251C0.225,-0.238 0.246,-0.227 0.261,-0.218C0.276,-0.209 0.289,-0.196 0.3,-0.181C0.311,-0.166 0.316,-0.147 0.316,-0.125C0.316,-0.102 0.31,-0.08 0.298,-0.06C0.285,-0.04 0.267,-0.024 0.244,-0.012C0.221,0 0.194,0.006 0.163,0.006C0.118,0.006 0.077,-0.005 0.038,-0.027L0.045,-0.072L0.052,-0.076C0.069,-0.062 0.087,-0.051 0.108,-0.044C0.128,-0.037 0.147,-0.033 0.166,-0.033C0.197,-0.033 0.221,-0.041 0.24,-0.058C0.259,-0.075 0.268,-0.094 0.268,-0.117C0.268,-0.138 0.26,-0.154 0.245,-0.167C0.23,-0.179 0.206,-0.193 0.173,-0.208C0.147,-0.22 0.126,-0.231 0.11,-0.241C0.094,-0.251 0.081,-0.264 0.07,-0.28C0.058,-0.296 0.053,-0.315 0.053,-0.338C0.053,-0.373 0.066,-0.403 0.093,-0.426C0.12,-0.448 0.155,-0.46 0.199,-0.46Z" style="fill:rgb(89,89,89);fill-rule:nonzero;"/>
            </g>
            <g transform="matrix(2.38946,0,0,2.38946,606.719,189.282)">
                <path d="M0.213,-0.04C0.236,-0.04 0.261,-0.048 0.288,-0.063L0.294,-0.058L0.289,-0.022C0.256,-0.005 0.226,0.004 0.199,0.005C0.164,0.001 0.139,-0.011 0.122,-0.032C0.105,-0.052 0.097,-0.081 0.097,-0.119L0.099,-0.209L0.098,-0.417L0.036,-0.417L0.032,-0.422L0.036,-0.454L0.098,-0.454L0.098,-0.545L0.142,-0.563L0.148,-0.558L0.147,-0.454L0.292,-0.454L0.296,-0.449L0.292,-0.417L0.147,-0.417L0.144,-0.124C0.144,-0.095 0.15,-0.074 0.161,-0.061C0.172,-0.047 0.19,-0.04 0.213,-0.04Z" style="fill:rgb(89,89,89);fill-rule:nonzero;"/>
            </g>
            <g transform="matrix(2.38946,0,0,2.38946,607.417,189.282)">
                <path d="M0.248,-0.462C0.308,-0.462 0.355,-0.442 0.389,-0.402C0.422,-0.361 0.439,-0.305 0.439,-0.233C0.439,-0.158 0.421,-0.099 0.386,-0.057C0.351,-0.015 0.302,0.006 0.239,0.006C0.179,0.006 0.132,-0.014 0.099,-0.055C0.066,-0.095 0.049,-0.151 0.049,-0.222C0.049,-0.297 0.067,-0.356 0.102,-0.399C0.136,-0.441 0.185,-0.462 0.248,-0.462ZM0.246,-0.423C0.199,-0.423 0.163,-0.406 0.137,-0.373C0.111,-0.34 0.098,-0.293 0.098,-0.232C0.098,-0.168 0.111,-0.119 0.136,-0.085C0.161,-0.05 0.196,-0.033 0.241,-0.033C0.288,-0.033 0.325,-0.05 0.351,-0.083C0.377,-0.116 0.39,-0.162 0.39,-0.223C0.39,-0.287 0.377,-0.336 0.352,-0.371C0.327,-0.406 0.291,-0.423 0.246,-0.423Z" style="fill:rgb(89,89,89);fill-rule:nonzero;"/>
            </g>
            <g transform="matrix(2.38946,0,0,2.38946,608.996,189.282)">
                <path d="M0.28,-0.46C0.335,-0.46 0.378,-0.441 0.409,-0.403C0.439,-0.365 0.454,-0.311 0.454,-0.24C0.454,-0.162 0.435,-0.101 0.397,-0.059C0.359,-0.016 0.305,0.006 0.236,0.006C0.203,0.006 0.17,0.003 0.139,-0.003L0.14,0.185L0.089,0.185L0.092,-0.195L0.089,-0.451L0.139,-0.457L0.139,-0.391L0.144,-0.391C0.185,-0.431 0.231,-0.454 0.28,-0.46ZM0.241,-0.033C0.293,-0.033 0.333,-0.051 0.362,-0.086C0.391,-0.121 0.405,-0.17 0.405,-0.233C0.405,-0.292 0.394,-0.337 0.372,-0.369C0.349,-0.4 0.317,-0.416 0.276,-0.416C0.227,-0.416 0.182,-0.391 0.139,-0.34L0.138,-0.198L0.139,-0.056C0.176,-0.041 0.21,-0.033 0.241,-0.033Z" style="fill:rgb(89,89,89);fill-rule:nonzero;"/>
            </g>
            <g transform="matrix(2.38946,0,0,2.38946,610.201,189.282)">
                <path d="M0.289,-0.461C0.336,-0.461 0.371,-0.449 0.396,-0.426C0.421,-0.402 0.433,-0.368 0.432,-0.325L0.43,-0.197L0.432,-0L0.38,-0L0.384,-0.315C0.384,-0.347 0.376,-0.372 0.36,-0.39C0.343,-0.407 0.32,-0.416 0.29,-0.416C0.243,-0.416 0.194,-0.389 0.143,-0.334L0.142,-0.198L0.145,-0L0.094,-0L0.097,-0.195L0.094,-0.697L0.146,-0.702L0.143,-0.384L0.149,-0.384C0.172,-0.406 0.195,-0.424 0.22,-0.437C0.244,-0.45 0.267,-0.458 0.289,-0.461Z" style="fill:rgb(89,89,89);fill-rule:nonzero;"/>
            </g>
            <g transform="matrix(2.38946,0,0,2.38946,611.374,189.282)">
                <path d="M0.078,-0.405L0.202,-0.063L0.208,-0.063L0.337,-0.402L0.352,-0.455L0.401,-0.455L0.231,-0.009C0.214,0.036 0.196,0.072 0.178,0.097C0.159,0.122 0.137,0.142 0.112,0.156C0.086,0.169 0.052,0.181 0.01,0.19L0.004,0.19C-0.005,0.181 -0.012,0.171 -0.017,0.16L-0.016,0.152C0.021,0.145 0.05,0.137 0.073,0.126C0.096,0.115 0.115,0.1 0.132,0.081C0.149,0.062 0.165,0.035 0.181,-0L0.014,-0.453L0.063,-0.458L0.078,-0.405Z" style="fill:rgb(89,89,89);fill-rule:nonzero;"/>
            </g>
            <g transform="matrix(2.38946,0,0,2.38946,612.37,189.282)">
                <path d="M0.142,-0.198L0.145,-0L0.094,-0L0.097,-0.195L0.094,-0.697L0.146,-0.702L0.142,-0.198Z" style="fill:rgb(89,89,89);fill-rule:nonzero;"/>
            </g>
            <g transform="matrix(2.38946,0,0,2.38946,612.941,189.282)">
                <path d="M0.248,-0.462C0.308,-0.462 0.355,-0.442 0.389,-0.402C0.422,-0.361 0.439,-0.305 0.439,-0.233C0.439,-0.158 0.421,-0.099 0.386,-0.057C0.351,-0.015 0.302,0.006 0.239,0.006C0.179,0.006 0.132,-0.014 0.099,-0.055C0.066,-0.095 0.049,-0.151 0.049,-0.222C0.049,-0.297 0.067,-0.356 0.102,-0.399C0.136,-0.441 0.185,-0.462 0.248,-0.462ZM0.246,-0.423C0.199,-0.423 0.163,-0.406 0.137,-0.373C0.111,-0.34 0.098,-0.293 0.098,-0.232C0.098,-0.168 0.111,-0.119 0.136,-0.085C0.161,-0.05 0.196,-0.033 0.241,-0.033C0.288,-0.033 0.325,-0.05 0.351,-0.083C0.377,-0.116 0.39,-0.162 0.39,-0.223C0.39,-0.287 0.377,-0.336 0.352,-0.371C0.327,-0.406 0.291,-0.423 0.246,-0.423Z" style="fill:rgb(89,89,89);fill-rule:nonzero;"/>
            </g>
            <g transform="matrix(2.38946,0,0,2.38946,614.11,189.282)">
                <path d="M0.471,-0.428C0.44,-0.42 0.407,-0.413 0.371,-0.406L0.37,-0.403C0.389,-0.378 0.399,-0.346 0.399,-0.307C0.399,-0.259 0.384,-0.221 0.354,-0.193C0.323,-0.164 0.282,-0.15 0.23,-0.15C0.205,-0.15 0.182,-0.154 0.16,-0.161C0.145,-0.15 0.134,-0.141 0.129,-0.134C0.124,-0.127 0.121,-0.12 0.121,-0.113C0.121,-0.098 0.13,-0.088 0.15,-0.082C0.168,-0.075 0.198,-0.069 0.239,-0.063C0.278,-0.057 0.311,-0.051 0.336,-0.044C0.361,-0.037 0.383,-0.027 0.401,-0.012C0.419,0.003 0.428,0.023 0.428,0.048C0.428,0.074 0.419,0.098 0.4,0.12C0.381,0.142 0.356,0.16 0.324,0.173C0.292,0.186 0.257,0.192 0.22,0.192C0.169,0.192 0.13,0.181 0.101,0.158C0.072,0.134 0.057,0.105 0.057,0.069C0.064,0.049 0.075,0.031 0.09,0.016C0.105,-0 0.126,-0.016 0.152,-0.031L0.152,-0.036C0.127,-0.043 0.107,-0.052 0.093,-0.064C0.078,-0.075 0.071,-0.091 0.071,-0.111C0.08,-0.13 0.1,-0.15 0.131,-0.171L0.131,-0.174C0.088,-0.201 0.067,-0.243 0.067,-0.302C0.067,-0.351 0.082,-0.39 0.113,-0.418C0.143,-0.446 0.184,-0.46 0.236,-0.46C0.273,-0.46 0.303,-0.453 0.328,-0.439C0.384,-0.45 0.43,-0.46 0.465,-0.47L0.471,-0.466L0.471,-0.428ZM0.232,-0.188C0.269,-0.188 0.299,-0.199 0.32,-0.22C0.341,-0.241 0.352,-0.27 0.352,-0.307C0.352,-0.344 0.342,-0.372 0.322,-0.392C0.301,-0.412 0.272,-0.422 0.235,-0.422C0.197,-0.422 0.167,-0.412 0.146,-0.391C0.125,-0.37 0.114,-0.341 0.114,-0.304C0.114,-0.268 0.124,-0.24 0.145,-0.219C0.166,-0.198 0.195,-0.188 0.232,-0.188ZM0.381,0.055C0.381,0.038 0.374,0.024 0.361,0.014C0.348,0.004 0.331,-0.003 0.312,-0.008C0.292,-0.013 0.265,-0.017 0.232,-0.022L0.199,-0.027C0.168,-0.01 0.145,0.006 0.129,0.023C0.112,0.04 0.104,0.057 0.104,0.076C0.104,0.098 0.115,0.117 0.136,0.132C0.157,0.147 0.187,0.154 0.225,0.154C0.254,0.154 0.28,0.15 0.304,0.141C0.327,0.132 0.346,0.119 0.36,0.104C0.374,0.089 0.381,0.072 0.381,0.055Z" style="fill:rgb(89,89,89);fill-rule:nonzero;"/>
            </g>
            <g transform="matrix(2.38946,0,0,2.38946,615.257,189.282)">
                <path d="M0.246,-0.462C0.296,-0.462 0.335,-0.447 0.363,-0.418C0.39,-0.388 0.404,-0.346 0.404,-0.293C0.404,-0.28 0.403,-0.266 0.401,-0.252L0.393,-0.243L0.097,-0.241L0.097,-0.226C0.097,-0.167 0.111,-0.12 0.138,-0.087C0.165,-0.054 0.202,-0.037 0.251,-0.037C0.275,-0.037 0.299,-0.041 0.322,-0.049C0.345,-0.056 0.366,-0.067 0.384,-0.08L0.391,-0.076L0.384,-0.031C0.341,-0.006 0.294,0.006 0.245,0.006C0.184,0.006 0.136,-0.014 0.102,-0.056C0.067,-0.097 0.049,-0.153 0.049,-0.224C0.049,-0.272 0.057,-0.314 0.073,-0.35C0.089,-0.386 0.112,-0.414 0.142,-0.433C0.172,-0.452 0.207,-0.462 0.246,-0.462ZM0.356,-0.3C0.356,-0.339 0.346,-0.369 0.327,-0.391C0.308,-0.412 0.28,-0.423 0.245,-0.423C0.207,-0.423 0.175,-0.41 0.15,-0.385C0.125,-0.359 0.108,-0.324 0.101,-0.279L0.354,-0.283L0.356,-0.3Z" style="fill:rgb(89,89,89);fill-rule:nonzero;"/>
            </g>
            <g transform="matrix(2.38946,0,0,2.38946,616.341,189.282)">
                <path d="M0.379,-0.315C0.38,-0.347 0.372,-0.372 0.356,-0.39C0.339,-0.407 0.316,-0.416 0.286,-0.416C0.262,-0.416 0.237,-0.409 0.212,-0.395C0.187,-0.38 0.162,-0.36 0.139,-0.333L0.138,-0.198L0.141,-0L0.089,-0L0.092,-0.195L0.09,-0.451L0.139,-0.457L0.139,-0.384L0.144,-0.384C0.167,-0.406 0.19,-0.424 0.215,-0.437C0.239,-0.45 0.262,-0.458 0.285,-0.461C0.331,-0.461 0.366,-0.449 0.391,-0.426C0.416,-0.402 0.428,-0.368 0.427,-0.325L0.426,-0.197L0.428,-0L0.376,-0L0.379,-0.315Z" style="fill:rgb(89,89,89);fill-rule:nonzero;"/>
            </g>
            <g transform="matrix(2.38946,0,0,2.38946,617.558,189.282)">
                <path d="M0.246,-0.462C0.296,-0.462 0.335,-0.447 0.363,-0.418C0.39,-0.388 0.404,-0.346 0.404,-0.293C0.404,-0.28 0.403,-0.266 0.401,-0.252L0.393,-0.243L0.097,-0.241L0.097,-0.226C0.097,-0.167 0.111,-0.12 0.138,-0.087C0.165,-0.054 0.202,-0.037 0.251,-0.037C0.275,-0.037 0.299,-0.041 0.322,-0.049C0.345,-0.056 0.366,-0.067 0.384,-0.08L0.391,-0.076L0.384,-0.031C0.341,-0.006 0.294,0.006 0.245,0.006C0.184,0.006 0.136,-0.014 0.102,-0.056C0.067,-0.097 0.049,-0.153 0.049,-0.224C0.049,-0.272 0.057,-0.314 0.073,-0.35C0.089,-0.386 0.112,-0.414 0.142,-0.433C0.172,-0.452 0.207,-0.462 0.246,-0.462ZM0.356,-0.3C0.356,-0.339 0.346,-0.369 0.327,-0.391C0.308,-0.412 0.28,-0.423 0.245,-0.423C0.207,-0.423 0.175,-0.41 0.15,-0.385C0.125,-0.359 0.108,-0.324 0.101,-0.279L0.354,-0.283L0.356,-0.3Z" style="fill:rgb(89,89,89);fill-rule:nonzero;"/>
            </g>
            <g transform="matrix(2.38946,0,0,2.38946,618.643,189.282)">
                <path d="M0.213,-0.04C0.236,-0.04 0.261,-0.048 0.288,-0.063L0.294,-0.058L0.289,-0.022C0.256,-0.005 0.226,0.004 0.199,0.005C0.164,0.001 0.139,-0.011 0.122,-0.032C0.105,-0.052 0.097,-0.081 0.097,-0.119L0.099,-0.209L0.098,-0.417L0.036,-0.417L0.032,-0.422L0.036,-0.454L0.098,-0.454L0.098,-0.545L0.142,-0.563L0.148,-0.558L0.147,-0.454L0.292,-0.454L0.296,-0.449L0.292,-0.417L0.147,-0.417L0.144,-0.124C0.144,-0.095 0.15,-0.074 0.161,-0.061C0.172,-0.047 0.19,-0.04 0.213,-0.04Z" style="fill:rgb(89,89,89);fill-rule:nonzero;"/>
            </g>
            <g transform="matrix(2.38946,0,0,2.38946,619.381,189.282)">
                <path d="M0.092,-0.195L0.091,-0.451L0.141,-0.457L0.14,-0.198L0.141,-0L0.09,-0L0.092,-0.195ZM0.116,-0.648C0.127,-0.648 0.135,-0.645 0.141,-0.639C0.146,-0.633 0.149,-0.625 0.149,-0.615C0.149,-0.604 0.146,-0.596 0.14,-0.59C0.134,-0.583 0.126,-0.58 0.115,-0.58C0.104,-0.58 0.096,-0.583 0.091,-0.589C0.085,-0.594 0.082,-0.602 0.082,-0.613C0.082,-0.624 0.085,-0.632 0.091,-0.639C0.097,-0.645 0.105,-0.648 0.116,-0.648Z" style="fill:rgb(89,89,89);fill-rule:nonzero;"/>
            </g>
            <g transform="matrix(2.38946,0,0,2.38946,619.938,189.282)">
                <path d="M0.239,-0.462C0.26,-0.462 0.283,-0.459 0.306,-0.453C0.329,-0.446 0.348,-0.438 0.365,-0.428L0.355,-0.383L0.347,-0.382C0.332,-0.393 0.314,-0.401 0.295,-0.408C0.276,-0.415 0.257,-0.418 0.238,-0.418C0.195,-0.418 0.161,-0.401 0.136,-0.367C0.111,-0.332 0.098,-0.285 0.098,-0.226C0.098,-0.168 0.111,-0.122 0.136,-0.088C0.161,-0.054 0.196,-0.037 0.24,-0.037C0.26,-0.037 0.281,-0.041 0.302,-0.048C0.323,-0.055 0.343,-0.064 0.36,-0.075L0.367,-0.071L0.362,-0.027C0.344,-0.017 0.324,-0.009 0.302,-0.003C0.279,0.003 0.257,0.006 0.235,0.006C0.178,0.006 0.132,-0.015 0.099,-0.056C0.066,-0.097 0.049,-0.153 0.049,-0.224C0.049,-0.297 0.066,-0.355 0.1,-0.398C0.134,-0.441 0.18,-0.462 0.239,-0.462Z" style="fill:rgb(89,89,89);fill-rule:nonzero;"/>
            </g>
            <g transform="matrix(2.38946,0,0,2.38946,621.271,189.282)">
                <path d="M0.224,-0.462C0.265,-0.462 0.296,-0.452 0.319,-0.431C0.342,-0.41 0.353,-0.382 0.353,-0.345C0.353,-0.331 0.352,-0.313 0.351,-0.29C0.35,-0.267 0.349,-0.242 0.348,-0.216C0.344,-0.14 0.342,-0.097 0.342,-0.087C0.342,-0.07 0.345,-0.057 0.35,-0.051C0.355,-0.044 0.363,-0.04 0.375,-0.04C0.387,-0.04 0.4,-0.043 0.413,-0.05L0.42,-0.045L0.414,-0.012C0.398,-0.002 0.381,0.003 0.363,0.004C0.323,0.003 0.302,-0.022 0.3,-0.071L0.295,-0.071C0.257,-0.028 0.218,-0.002 0.177,0.006C0.137,0.006 0.106,-0.005 0.083,-0.026C0.06,-0.047 0.049,-0.076 0.049,-0.113C0.049,-0.167 0.078,-0.201 0.137,-0.214L0.303,-0.253L0.305,-0.334C0.305,-0.363 0.297,-0.385 0.282,-0.4C0.267,-0.415 0.245,-0.422 0.217,-0.422C0.174,-0.422 0.128,-0.4 0.077,-0.357L0.071,-0.36L0.063,-0.397C0.118,-0.44 0.171,-0.462 0.224,-0.462ZM0.147,-0.179C0.113,-0.171 0.096,-0.151 0.096,-0.119C0.096,-0.094 0.103,-0.074 0.117,-0.06C0.131,-0.045 0.15,-0.038 0.175,-0.038C0.195,-0.038 0.216,-0.045 0.237,-0.059C0.258,-0.073 0.278,-0.093 0.298,-0.119L0.302,-0.216L0.147,-0.179Z" style="fill:rgb(89,89,89);fill-rule:nonzero;"/>
            </g>
            <g transform="matrix(2.38946,0,0,2.38946,622.322,189.282)">
                <path d="M0.379,-0.315C0.38,-0.347 0.372,-0.372 0.356,-0.39C0.339,-0.407 0.316,-0.416 0.286,-0.416C0.262,-0.416 0.237,-0.409 0.212,-0.395C0.187,-0.38 0.162,-0.36 0.139,-0.333L0.138,-0.198L0.141,-0L0.089,-0L0.092,-0.195L0.09,-0.451L0.139,-0.457L0.139,-0.384L0.144,-0.384C0.167,-0.406 0.19,-0.424 0.215,-0.437C0.239,-0.45 0.262,-0.458 0.285,-0.461C0.331,-0.461 0.366,-0.449 0.391,-0.426C0.416,-0.402 0.428,-0.368 0.427,-0.325L0.426,-0.197L0.428,-0L0.376,-0L0.379,-0.315Z" style="fill:rgb(89,89,89);fill-rule:nonzero;"/>
            </g>
            <g transform="matrix(2.38946,0,0,2.38946,623.539,189.282)">
                <path d="M0.224,-0.462C0.265,-0.462 0.296,-0.452 0.319,-0.431C0.342,-0.41 0.353,-0.382 0.353,-0.345C0.353,-0.331 0.352,-0.313 0.351,-0.29C0.35,-0.267 0.349,-0.242 0.348,-0.216C0.344,-0.14 0.342,-0.097 0.342,-0.087C0.342,-0.07 0.345,-0.057 0.35,-0.051C0.355,-0.044 0.363,-0.04 0.375,-0.04C0.387,-0.04 0.4,-0.043 0.413,-0.05L0.42,-0.045L0.414,-0.012C0.398,-0.002 0.381,0.003 0.363,0.004C0.323,0.003 0.302,-0.022 0.3,-0.071L0.295,-0.071C0.257,-0.028 0.218,-0.002 0.177,0.006C0.137,0.006 0.106,-0.005 0.083,-0.026C0.06,-0.047 0.049,-0.076 0.049,-0.113C0.049,-0.167 0.078,-0.201 0.137,-0.214L0.303,-0.253L0.305,-0.334C0.305,-0.363 0.297,-0.385 0.282,-0.4C0.267,-0.415 0.245,-0.422 0.217,-0.422C0.174,-0.422 0.128,-0.4 0.077,-0.357L0.071,-0.36L0.063,-0.397C0.118,-0.44 0.171,-0.462 0.224,-0.462ZM0.147,-0.179C0.113,-0.171 0.096,-0.151 0.096,-0.119C0.096,-0.094 0.103,-0.074 0.117,-0.06C0.131,-0.045 0.15,-0.038 0.175,-0.038C0.195,-0.038 0.216,-0.045 0.237,-0.059C0.258,-0.073 0.278,-0.093 0.298,-0.119L0.302,-0.216L0.147,-0.179Z" style="fill:rgb(89,89,89);fill-rule:nonzero;"/>
            </g>
            <g transform="matrix(2.38946,0,0,2.38946,624.621,189.282)">
                <path d="M0.142,-0.198L0.145,-0L0.094,-0L0.097,-0.195L0.094,-0.697L0.146,-0.702L0.142,-0.198Z" style="fill:rgb(89,89,89);fill-rule:nonzero;"/>
            </g>
            <g transform="matrix(2.38946,0,0,2.38946,625.18,189.282)">
                <path d="M0.078,-0.405L0.202,-0.063L0.208,-0.063L0.337,-0.402L0.352,-0.455L0.401,-0.455L0.231,-0.009C0.214,0.036 0.196,0.072 0.178,0.097C0.159,0.122 0.137,0.142 0.112,0.156C0.086,0.169 0.052,0.181 0.01,0.19L0.004,0.19C-0.005,0.181 -0.012,0.171 -0.017,0.16L-0.016,0.152C0.021,0.145 0.05,0.137 0.073,0.126C0.096,0.115 0.115,0.1 0.132,0.081C0.149,0.062 0.165,0.035 0.181,-0L0.014,-0.453L0.063,-0.458L0.078,-0.405Z" style="fill:rgb(89,89,89);fill-rule:nonzero;"/>
            </g>
            <g transform="matrix(2.38946,0,0,2.38946,626.176,189.282)">
                <path d="M0.199,-0.46C0.234,-0.46 0.269,-0.453 0.302,-0.439L0.294,-0.396L0.285,-0.394C0.254,-0.412 0.223,-0.421 0.194,-0.421C0.167,-0.421 0.144,-0.413 0.127,-0.398C0.11,-0.383 0.101,-0.364 0.101,-0.342C0.101,-0.321 0.109,-0.304 0.125,-0.292C0.141,-0.279 0.165,-0.266 0.198,-0.251C0.225,-0.238 0.246,-0.227 0.261,-0.218C0.276,-0.209 0.289,-0.196 0.3,-0.181C0.311,-0.166 0.316,-0.147 0.316,-0.125C0.316,-0.102 0.31,-0.08 0.298,-0.06C0.285,-0.04 0.267,-0.024 0.244,-0.012C0.221,0 0.194,0.006 0.163,0.006C0.118,0.006 0.077,-0.005 0.038,-0.027L0.045,-0.072L0.052,-0.076C0.069,-0.062 0.087,-0.051 0.108,-0.044C0.128,-0.037 0.147,-0.033 0.166,-0.033C0.197,-0.033 0.221,-0.041 0.24,-0.058C0.259,-0.075 0.268,-0.094 0.268,-0.117C0.268,-0.138 0.26,-0.154 0.245,-0.167C0.23,-0.179 0.206,-0.193 0.173,-0.208C0.147,-0.22 0.126,-0.231 0.11,-0.241C0.094,-0.251 0.081,-0.264 0.07,-0.28C0.058,-0.296 0.053,-0.315 0.053,-0.338C0.053,-0.373 0.066,-0.403 0.093,-0.426C0.12,-0.448 0.155,-0.46 0.199,-0.46Z" style="fill:rgb(89,89,89);fill-rule:nonzero;"/>
            </g>
            <g transform="matrix(2.38946,0,0,2.38946,627.046,189.282)">
                <path d="M0.092,-0.195L0.091,-0.451L0.141,-0.457L0.14,-0.198L0.141,-0L0.09,-0L0.092,-0.195ZM0.116,-0.648C0.127,-0.648 0.135,-0.645 0.141,-0.639C0.146,-0.633 0.149,-0.625 0.149,-0.615C0.149,-0.604 0.146,-0.596 0.14,-0.59C0.134,-0.583 0.126,-0.58 0.115,-0.58C0.104,-0.58 0.096,-0.583 0.091,-0.589C0.085,-0.594 0.082,-0.602 0.082,-0.613C0.082,-0.624 0.085,-0.632 0.091,-0.639C0.097,-0.645 0.105,-0.648 0.116,-0.648Z" style="fill:rgb(89,89,89);fill-rule:nonzero;"/>
            </g>
            <g transform="matrix(2.38946,0,0,2.38946,627.603,189.282)">
                <path d="M0.199,-0.46C0.234,-0.46 0.269,-0.453 0.302,-0.439L0.294,-0.396L0.285,-0.394C0.254,-0.412 0.223,-0.421 0.194,-0.421C0.167,-0.421 0.144,-0.413 0.127,-0.398C0.11,-0.383 0.101,-0.364 0.101,-0.342C0.101,-0.321 0.109,-0.304 0.125,-0.292C0.141,-0.279 0.165,-0.266 0.198,-0.251C0.225,-0.238 0.246,-0.227 0.261,-0.218C0.276,-0.209 0.289,-0.196 0.3,-0.181C0.311,-0.166 0.316,-0.147 0.316,-0.125C0.316,-0.102 0.31,-0.08 0.298,-0.06C0.285,-0.04 0.267,-0.024 0.244,-0.012C0.221,0 0.194,0.006 0.163,0.006C0.118,0.006 0.077,-0.005 0.038,-0.027L0.045,-0.072L0.052,-0.076C0.069,-0.062 0.087,-0.051 0.108,-0.044C0.128,-0.037 0.147,-0.033 0.166,-0.033C0.197,-0.033 0.221,-0.041 0.24,-0.058C0.259,-0.075 0.268,-0.094 0.268,-0.117C0.268,-0.138 0.26,-0.154 0.245,-0.167C0.23,-0.179 0.206,-0.193 0.173,-0.208C0.147,-0.22 0.126,-0.231 0.11,-0.241C0.094,-0.251 0.081,-0.264 0.07,-0.28C0.058,-0.296 0.053,-0.315 0.053,-0.338C0.053,-0.373 0.066,-0.403 0.093,-0.426C0.12,-0.448 0.155,-0.46 0.199,-0.46Z" style="fill:rgb(89,89,89);fill-rule:nonzero;"/>
            </g>
        </g>
        <g transform="matrix(13.1104,0,0,13.1104,-1142.5,-2288.28)">
            <g transform="matrix(12,0,0,12,135.875,194.816)">
                <path d="M0.118,0.005L0.126,-0.048C0.156,-0.051 0.179,-0.055 0.193,-0.06C0.207,-0.066 0.216,-0.076 0.22,-0.092C0.224,-0.107 0.226,-0.131 0.226,-0.163L0.226,-0.583C0.192,-0.582 0.166,-0.58 0.146,-0.578C0.127,-0.575 0.112,-0.57 0.103,-0.562C0.093,-0.554 0.086,-0.541 0.082,-0.524C0.078,-0.508 0.074,-0.484 0.07,-0.455L0.007,-0.45C0.01,-0.471 0.012,-0.493 0.013,-0.516C0.015,-0.539 0.017,-0.561 0.018,-0.583C0.019,-0.605 0.02,-0.625 0.021,-0.642L0.031,-0.651L0.121,-0.64L0.432,-0.64L0.524,-0.651L0.534,-0.642C0.535,-0.623 0.536,-0.603 0.537,-0.58C0.538,-0.558 0.539,-0.536 0.541,-0.514C0.543,-0.493 0.545,-0.473 0.547,-0.455L0.484,-0.45C0.48,-0.481 0.475,-0.505 0.471,-0.522C0.466,-0.54 0.46,-0.552 0.45,-0.56C0.441,-0.569 0.428,-0.574 0.41,-0.577C0.392,-0.579 0.367,-0.582 0.336,-0.583C0.334,-0.562 0.332,-0.533 0.331,-0.497C0.329,-0.461 0.327,-0.422 0.326,-0.378C0.325,-0.335 0.324,-0.291 0.323,-0.247C0.322,-0.202 0.322,-0.16 0.322,-0.122C0.322,-0.097 0.326,-0.08 0.335,-0.069C0.343,-0.059 0.358,-0.054 0.378,-0.054C0.396,-0.054 0.414,-0.055 0.432,-0.057L0.436,-0.052L0.427,0.004C0.411,0.003 0.393,0.002 0.373,0.002C0.352,0.001 0.333,0.001 0.314,0.001C0.295,0 0.28,-0 0.268,-0C0.257,-0 0.243,0 0.225,0.001C0.208,0.001 0.189,0.002 0.171,0.002C0.152,0.003 0.134,0.004 0.118,0.005Z" style="fill-rule:nonzero;"/>
            </g>
            <g transform="matrix(12,0,0,12,142.427,194.816)">
                <path d="M0.049,0.01L0.055,-0.045C0.084,-0.049 0.104,-0.057 0.115,-0.069C0.125,-0.081 0.131,-0.101 0.131,-0.13L0.132,-0.533C0.132,-0.554 0.129,-0.569 0.125,-0.576C0.121,-0.583 0.111,-0.587 0.097,-0.587C0.093,-0.587 0.088,-0.587 0.081,-0.586C0.075,-0.586 0.069,-0.585 0.064,-0.585L0.06,-0.591L0.068,-0.642C0.081,-0.642 0.097,-0.642 0.115,-0.641C0.134,-0.64 0.153,-0.64 0.172,-0.64C0.192,-0.639 0.21,-0.639 0.226,-0.639C0.277,-0.639 0.321,-0.639 0.358,-0.64C0.395,-0.641 0.428,-0.642 0.455,-0.644C0.482,-0.646 0.507,-0.649 0.528,-0.651L0.533,-0.643C0.53,-0.627 0.526,-0.608 0.523,-0.588C0.52,-0.567 0.517,-0.547 0.515,-0.527C0.513,-0.506 0.511,-0.488 0.51,-0.47L0.443,-0.465C0.444,-0.471 0.445,-0.478 0.445,-0.487C0.445,-0.496 0.445,-0.502 0.445,-0.507C0.445,-0.522 0.444,-0.534 0.441,-0.543C0.438,-0.552 0.432,-0.559 0.423,-0.564C0.414,-0.568 0.4,-0.571 0.381,-0.573C0.362,-0.574 0.336,-0.575 0.304,-0.575C0.285,-0.575 0.271,-0.574 0.262,-0.573C0.253,-0.571 0.247,-0.568 0.245,-0.563C0.243,-0.558 0.242,-0.55 0.241,-0.538L0.231,-0.312L0.228,-0.119C0.228,-0.102 0.229,-0.088 0.232,-0.08C0.235,-0.072 0.242,-0.066 0.252,-0.063C0.262,-0.061 0.278,-0.059 0.3,-0.059C0.336,-0.059 0.365,-0.061 0.387,-0.063C0.409,-0.066 0.425,-0.071 0.437,-0.079C0.449,-0.087 0.457,-0.099 0.463,-0.115C0.469,-0.131 0.474,-0.152 0.477,-0.178L0.539,-0.184L0.544,-0.177C0.539,-0.155 0.534,-0.127 0.529,-0.093C0.524,-0.06 0.52,-0.029 0.516,-0.001L0.509,0.007C0.471,0.006 0.432,0.005 0.393,0.004C0.353,0.003 0.317,0.002 0.284,0.001C0.251,0 0.224,-0 0.203,-0C0.18,-0 0.155,0.001 0.126,0.003C0.097,0.004 0.071,0.007 0.049,0.01ZM0.218,-0.287L0.226,-0.361L0.252,-0.361C0.265,-0.361 0.279,-0.361 0.293,-0.36C0.308,-0.36 0.321,-0.36 0.332,-0.36C0.343,-0.36 0.361,-0.361 0.384,-0.363C0.408,-0.365 0.43,-0.367 0.452,-0.37L0.457,-0.363L0.443,-0.292C0.425,-0.293 0.403,-0.294 0.376,-0.294C0.349,-0.295 0.327,-0.295 0.308,-0.295C0.294,-0.295 0.279,-0.295 0.262,-0.293C0.245,-0.291 0.231,-0.289 0.218,-0.287Z" style="fill-rule:nonzero;"/>
            </g>
            <g transform="matrix(12,0,0,12,149.519,194.816)">
                <path d="M0.048,0.011L0.054,-0.043C0.084,-0.049 0.105,-0.058 0.115,-0.07C0.126,-0.081 0.131,-0.101 0.131,-0.129L0.132,-0.533C0.132,-0.555 0.129,-0.569 0.124,-0.576C0.119,-0.583 0.11,-0.587 0.095,-0.587C0.091,-0.587 0.084,-0.587 0.077,-0.586C0.069,-0.586 0.062,-0.586 0.056,-0.585L0.053,-0.591L0.06,-0.641C0.08,-0.641 0.101,-0.64 0.126,-0.64C0.15,-0.639 0.171,-0.639 0.188,-0.639C0.201,-0.639 0.22,-0.64 0.243,-0.641C0.266,-0.643 0.29,-0.645 0.315,-0.647L0.31,-0.593C0.284,-0.59 0.266,-0.584 0.257,-0.577C0.248,-0.569 0.242,-0.556 0.241,-0.537C0.239,-0.503 0.237,-0.466 0.236,-0.427C0.234,-0.388 0.233,-0.35 0.232,-0.312C0.23,-0.273 0.229,-0.238 0.229,-0.205C0.228,-0.171 0.228,-0.144 0.228,-0.121C0.228,-0.094 0.231,-0.076 0.236,-0.067C0.242,-0.057 0.253,-0.053 0.269,-0.053C0.278,-0.053 0.287,-0.053 0.296,-0.054C0.305,-0.055 0.312,-0.055 0.318,-0.056L0.321,-0.051L0.312,0.003C0.299,0.003 0.284,0.002 0.266,0.002C0.249,0.001 0.232,0.001 0.215,0.001C0.199,0 0.185,-0 0.174,-0C0.159,-0 0.14,0.001 0.116,0.003C0.093,0.005 0.07,0.008 0.048,0.011Z" style="fill-rule:nonzero;"/>
            </g>
            <g transform="matrix(12,0,0,12,153.851,194.816)">
                <path d="M0.271,-0.64C0.332,-0.64 0.378,-0.624 0.411,-0.593C0.444,-0.561 0.46,-0.516 0.46,-0.457C0.46,-0.388 0.44,-0.333 0.401,-0.295C0.361,-0.256 0.305,-0.236 0.233,-0.236L0.151,-0.236L0.151,-0.197L0.153,-0L0.101,-0L0.104,-0.194L0.101,-0.639L0.271,-0.64ZM0.263,-0.28C0.31,-0.286 0.345,-0.304 0.37,-0.334C0.395,-0.364 0.407,-0.404 0.407,-0.453C0.407,-0.499 0.395,-0.534 0.371,-0.558C0.346,-0.582 0.311,-0.595 0.265,-0.596L0.154,-0.594L0.152,-0.282L0.263,-0.28Z" style="fill-rule:nonzero;"/>
            </g>
            <g transform="matrix(12,0,0,12,159.887,194.816)">
                <path d="M0.574,-0.197L0.575,-0L0.524,-0L0.526,-0.194L0.526,-0.301L0.151,-0.301L0.151,-0.197L0.153,-0L0.101,-0L0.103,-0.194L0.101,-0.639L0.153,-0.639L0.152,-0.346L0.525,-0.346L0.524,-0.639L0.576,-0.639L0.574,-0.197Z" style="fill-rule:nonzero;"/>
            </g>
            <g transform="matrix(12,0,0,12,168.011,194.816)">
                <path d="M0.271,-0.191L0.273,-0L0.221,-0L0.223,-0.191L0.222,-0.236L0.02,-0.639L0.078,-0.639L0.09,-0.608L0.246,-0.298L0.252,-0.298L0.422,-0.607L0.435,-0.639L0.492,-0.639L0.272,-0.238L0.271,-0.191Z" style="fill-rule:nonzero;"/>
            </g>
        </g>
        <g transform="matrix(1,0,0,1,7.33586,25.49)">
            <g transform="matrix(1.13419,0,0,1.13419,-16.0539,-41.8157)">
                <g transform="matrix(0.842795,-0.543864,0.489782,0.935858,235.241,868.055)">
                    <rect x="154.232" y="-428.74" width="20.366" height="1.359" style="fill:rgb(243,211,76);"/>
                </g>
                <g transform="matrix(0.842785,-0.543883,0.489799,0.935847,226.755,900.098)">
                    <path d="M176.629,-448.598L197.009,-448.598L253.345,-345.579L232.965,-345.579L176.629,-448.598Z" style="fill:rgb(228,199,72);fill-rule:nonzero;"/>
                </g>
                <g transform="matrix(0.842785,-0.543883,0.489799,0.935847,263.68,859.53)">
                    <path d="M183.337,-535.634L203.716,-535.634L145.439,-436.586L125.06,-436.587L183.337,-535.634Z" style="fill:rgb(215,190,70);fill-rule:nonzero;"/>
                </g>
                <g transform="matrix(0.842785,-0.543884,0.489799,0.935847,298.979,843.46)">
                    <path d="M144.947,-580.452L165.326,-580.452L164.947,-540.993L144.568,-540.993L144.947,-580.452Z" style="fill:rgb(243,211,76);fill-rule:nonzero;"/>
                </g>
                <g transform="matrix(0.974777,0,0,-1.08241,3.88547,-133.477)">
                    <path d="M136.387,-327.867L155.887,-362.174L155.27,-477.092L155.941,-478.273L256.413,-539.036L275.58,-572.756L151.891,-497.503L136.763,-470.886L136.387,-327.867Z" style="fill:rgb(189,169,63);fill-rule:nonzero;"/>
                </g>
                <g transform="matrix(0.842785,-0.543884,0.4898,0.935847,211.513,939.557)">
                    <path d="M264.803,-369.239L285.182,-369.239L284.81,-330.454L264.431,-330.455L264.803,-369.239Z" style="fill:rgb(243,211,76);fill-rule:nonzero;"/>
                </g>
            </g>
            <g transform="matrix(1.13419,0,0,1.13419,-16.0539,-41.8157)">
                <g transform="matrix(0.974777,0,0,-1.08241,3.88547,-340.963)">
                    <path d="M312.795,-423.711L436.813,-499.554L451.941,-526.17L451.987,-668.601L432.821,-634.88L433.104,-519.375L432.434,-518.194L332.295,-458.018L312.795,-423.711Z" style="fill:rgb(189,169,63);fill-rule:nonzero;"/>
                </g>
                <g transform="matrix(0.842784,-0.543887,0.489802,0.935845,309.628,1018.69)">
                    <path d="M486.349,-561.63L506.727,-561.63L435.2,-438.463L414.821,-438.463L486.349,-561.63Z" style="fill:rgb(215,190,70);fill-rule:nonzero;"/>
                </g>
                <g transform="matrix(0.842795,-0.543864,0.489782,0.935858,350.009,1002.17)">
                    <path d="M443.144,-599.876L463.523,-599.876L463.229,-569.262L442.851,-569.262L443.144,-599.876Z" style="fill:rgb(243,211,76);fill-rule:nonzero;"/>
                </g>
                <g transform="matrix(0.842796,-0.543864,0.489781,0.935859,365.918,956.824)">
                    <path d="M338.865,-699.743L359.244,-699.743L428.363,-571.855L407.983,-571.855L338.865,-699.743Z" style="fill:rgb(228,199,72);fill-rule:nonzero;"/>
                </g>
            </g>
            <g transform="matrix(1.62522,0,0,1.62522,-127.699,-194.718)">
                <path d="M213.261,289.061L251.422,289.061" style="fill:none;stroke:black;stroke-width:7.38px;"/>
            </g>
            <g transform="matrix(1.68295,0,0,-2.13831,-140.011,900.907)">
                <path d="M213.261,289.061L251.422,289.061" style="fill:none;stroke:black;stroke-width:12.47px;"/>
            </g>
            <g transform="matrix(1.68295,0,0,8.28054,-204.414,-1690.12)">
                <path d="M329.158,244.871L289.69,244.871L289.69,231.65L330.612,231.65" style="fill:none;stroke:black;stroke-width:4.35px;"/>
            </g>
            <g transform="matrix(1.68295,0,0,7.08808,-135.544,-1351.26)">
                <path d="M329.158,244.871L289.69,244.871L289.69,231.65L330.612,231.65" style="fill:none;stroke:black;stroke-width:4.85px;"/>
            </g>
        </g>
    </g>
</svg>
